<svg width="10" height="16" viewBox="0 0 10 16" fill="none" xmlns="http://www.w3.org/2000/svg">
<path d="M5.29676 2.97788C6.21238 2.97788 6.95715 3.66809 6.95715 4.51662C6.95715 5.36444 6.21218 6.05465 5.29676 6.05465C4.38173 6.05465 3.63676 5.36444 3.63676 4.51662C3.63657 3.66791 4.38192 2.97788 5.29676 2.97788ZM5.29676 8.23165C7.50844 8.23165 9.30703 6.56537 9.30703 4.51662C9.30703 2.4668 7.50863 0.799805 5.29676 0.799805C3.08528 0.799805 1.2865 2.46698 1.2865 4.51662C1.2865 6.56537 3.08528 8.23165 5.29676 8.23165ZM6.91914 11.2631C7.74412 11.0889 8.5314 10.7868 9.24772 10.3695C9.51142 10.2158 9.69842 9.97122 9.76757 9.68969C9.83672 9.40816 9.78237 9.11271 9.61646 8.86832C9.5344 8.74719 9.42739 8.64224 9.30153 8.55947C9.17567 8.4767 9.03345 8.41774 8.88298 8.38595C8.73251 8.35416 8.57676 8.35017 8.42463 8.37422C8.2725 8.39826 8.12698 8.44986 7.99638 8.52606C6.35346 9.48328 4.23892 9.48257 2.59734 8.52606C2.46677 8.44984 2.32126 8.39822 2.16914 8.37417C2.01702 8.35012 1.86127 8.3541 1.71082 8.38589C1.56036 8.41768 1.41814 8.47665 1.2923 8.55943C1.16647 8.64221 1.05948 8.74718 0.977457 8.86832C0.811497 9.11264 0.757051 9.40805 0.826093 9.68958C0.895135 9.9711 1.08201 10.2157 1.34562 10.3695C2.06188 10.7867 2.84901 11.0888 3.67381 11.2631L1.432 13.341C1.21169 13.5452 1.08795 13.8222 1.08801 14.111C1.08806 14.3998 1.2119 14.6767 1.43229 14.8809C1.65267 15.085 1.95155 15.1997 2.26316 15.1997C2.57478 15.1996 2.87361 15.0849 3.09392 14.8806L5.29638 12.8392L7.50018 14.8808C7.60915 14.9819 7.73856 15.0622 7.88101 15.1169C8.02346 15.1716 8.17616 15.1998 8.33038 15.1998C8.48459 15.1998 8.63729 15.1716 8.77974 15.1169C8.92219 15.0622 9.05161 14.9819 9.16057 14.8808C9.26986 14.7798 9.35657 14.6599 9.41573 14.5278C9.47489 14.3957 9.50535 14.2541 9.50535 14.1111C9.50535 13.9681 9.47489 13.8264 9.41573 13.6944C9.35657 13.5623 9.26986 13.4423 9.16057 13.3413L6.91914 11.2631Z" fill="white"/>
</svg>
