<svg width="15" height="24" viewBox="0 0 15 24" fill="none" xmlns="http://www.w3.org/2000/svg">
<path d="M7.49982 3.63012C9.02584 3.63012 10.2671 4.78047 10.2671 6.19469C10.2671 7.60772 9.02552 8.75807 7.49982 8.75807C5.97476 8.75807 4.73315 7.60772 4.73315 6.19469C4.73283 4.78018 5.97508 3.63012 7.49982 3.63012ZM7.49982 12.3864C11.1859 12.3864 14.1836 9.60927 14.1836 6.19469C14.1836 2.77833 11.1863 0 7.49982 0C3.81401 0 0.816042 2.77863 0.816042 6.19469C0.816042 9.60927 3.81401 12.3864 7.49982 12.3864ZM10.2038 17.4388C11.5787 17.1486 12.8909 16.6451 14.0847 15.9495C14.5242 15.6933 14.8359 15.2857 14.9512 14.8165C15.0664 14.3473 14.9758 13.8548 14.6993 13.4475C14.5625 13.2456 14.3842 13.0707 14.1744 12.9328C13.9647 12.7948 13.7276 12.6966 13.4768 12.6436C13.2261 12.5906 12.9665 12.584 12.7129 12.624C12.4594 12.6641 12.2168 12.7501 11.9992 12.8771C9.26098 14.4725 5.73674 14.4713 3.00078 12.8771C2.78316 12.7501 2.54064 12.664 2.28711 12.6239C2.03357 12.5839 1.774 12.5905 1.52324 12.6435C1.27247 12.6965 1.03544 12.7947 0.825714 12.9327C0.615984 13.0707 0.437668 13.2456 0.300971 13.4475C0.02437 13.8547 -0.0663735 14.3471 0.048697 14.8163C0.163767 15.2855 0.475228 15.6931 0.914577 15.9495C2.10835 16.6448 3.42022 17.1483 4.79489 17.4388L1.05854 20.902C0.691361 21.2424 0.485133 21.704 0.485223 22.1853C0.485313 22.6666 0.691714 23.1282 1.05902 23.4685C1.42633 23.8087 1.92446 23.9999 2.44382 23.9998C2.96318 23.9997 3.46123 23.8084 3.82841 23.468L7.49918 20.0656L11.1722 23.4683C11.3538 23.6369 11.5695 23.7706 11.8069 23.8618C12.0443 23.953 12.2988 24 12.5558 24C12.8129 24 13.0674 23.953 13.3048 23.8618C13.5422 23.7706 13.7579 23.6369 13.9395 23.4683C14.1216 23.3 14.2662 23.1001 14.3648 22.8799C14.4634 22.6598 14.5141 22.4238 14.5141 22.1854C14.5141 21.9471 14.4634 21.7111 14.3648 21.4909C14.2662 21.2708 14.1216 21.0708 13.9395 20.9026L10.2038 17.4388Z" fill="#2E2E2E"/>
</svg>
