<svg width="14" height="14" viewBox="0 0 14 14" fill="none" xmlns="http://www.w3.org/2000/svg">
<path d="M4.79897 6.9999C4.79897 5.78492 5.78367 4.79973 6.9987 4.79973C8.21373 4.79973 9.19897 5.78492 9.19897 6.9999C9.19897 8.21488 8.21373 9.20008 6.9987 9.20008C5.78367 9.20008 4.79897 8.21488 4.79897 6.9999ZM3.60955 6.9999C3.60955 8.87166 5.12687 10.3889 6.9987 10.3889C8.87054 10.3889 10.3879 8.87166 10.3879 6.9999C10.3879 5.12814 8.87054 3.61088 6.9987 3.61088C5.12687 3.61088 3.60955 5.12814 3.60955 6.9999ZM9.73 3.47651C9.72993 3.63315 9.77633 3.78629 9.8633 3.91657C9.95028 4.04685 10.0739 4.14841 10.2186 4.20841C10.3633 4.26842 10.5226 4.28416 10.6762 4.25367C10.8299 4.22317 10.971 4.14779 11.0819 4.03707C11.1927 3.92636 11.2682 3.78526 11.2988 3.63164C11.3294 3.47802 11.3138 3.31877 11.2539 3.17403C11.194 3.02929 11.0925 2.90555 10.9623 2.81847C10.8321 2.7314 10.679 2.68488 10.5223 2.68482H10.522C10.3121 2.68492 10.1107 2.76835 9.9622 2.91679C9.81369 3.06523 9.73018 3.26654 9.73 3.47651ZM4.3322 12.3721C3.6887 12.3428 3.33893 12.2357 3.1065 12.1451C2.79835 12.0251 2.57848 11.8823 2.34731 11.6514C2.11614 11.4206 1.97305 11.2009 1.85361 10.8928C1.763 10.6605 1.65581 10.3106 1.62656 9.66715C1.59456 8.97145 1.58817 8.76247 1.58817 6.99995C1.58817 5.23744 1.59509 5.02904 1.62656 4.33276C1.65587 3.68929 1.76385 3.34012 1.85361 3.10712C1.97358 2.79898 2.11646 2.57912 2.34731 2.34796C2.57816 2.1168 2.79782 1.97371 3.1065 1.85428C3.33883 1.76367 3.6887 1.65649 4.3322 1.62724C5.02792 1.59524 5.23691 1.58885 6.9987 1.58885C8.7605 1.58885 8.9697 1.59577 9.666 1.62724C10.3095 1.65654 10.6587 1.76452 10.8917 1.85428C11.1999 1.97371 11.4197 2.11712 11.6509 2.34796C11.8821 2.5788 12.0246 2.79898 12.1446 3.10712C12.2352 3.33944 12.3424 3.68929 12.3716 4.33276C12.4036 5.02904 12.41 5.23744 12.41 6.99995C12.41 8.76247 12.4036 8.97087 12.3716 9.66715C12.3423 10.3106 12.2346 10.6604 12.1446 10.8928C12.0246 11.2009 11.8817 11.4208 11.6509 11.6514C11.42 11.8821 11.1999 12.0251 10.8917 12.1451C10.6594 12.2357 10.3095 12.3429 9.666 12.3721C8.97028 12.4041 8.76129 12.4105 6.9987 12.4105C5.23611 12.4105 5.0277 12.4041 4.3322 12.3721ZM4.27754 0.439872C3.57491 0.471869 3.09478 0.583277 2.67548 0.746429C2.24123 0.914913 1.87362 1.14095 1.50628 1.5077C1.13893 1.87445 0.913469 2.24262 0.744978 2.67685C0.581819 3.0964 0.470407 3.57624 0.438409 4.27885C0.405883 4.98257 0.398438 5.20755 0.398438 6.9999C0.398438 8.79225 0.405883 9.01723 0.438409 9.72095C0.470407 10.4236 0.581819 10.9034 0.744978 11.323C0.913469 11.7569 1.13899 12.1255 1.50628 12.4921C1.87357 12.8587 2.24123 13.0844 2.67548 13.2534C3.09557 13.4165 3.57491 13.5279 4.27754 13.5599C4.98166 13.5919 5.20628 13.5999 6.9987 13.5999C8.79112 13.5999 9.01611 13.5925 9.71986 13.5599C10.4225 13.5279 10.9024 13.4165 11.3219 13.2534C11.7559 13.0844 12.1238 12.8589 12.4911 12.4921C12.8585 12.1254 13.0835 11.7569 13.2524 11.323C13.4156 10.9034 13.5275 10.4236 13.559 9.72095C13.591 9.0167 13.5984 8.79225 13.5984 6.9999C13.5984 5.20755 13.591 4.98257 13.559 4.27885C13.527 3.57619 13.4156 3.09613 13.2524 2.67685C13.0835 2.24289 12.8579 1.87503 12.4911 1.5077C12.1244 1.14037 11.7559 0.914913 11.3225 0.746429C10.9024 0.583277 10.4225 0.471341 9.72039 0.439872C9.01664 0.407875 8.79165 0.399902 6.99923 0.399902C5.20681 0.399902 4.98166 0.407347 4.27754 0.439872Z" fill="white"/>
</svg>
