<svg width="54" height="54" viewBox="0 0 54 54" fill="none" xmlns="http://www.w3.org/2000/svg">
<path d="M53.8748 24.281C53.3406 18.5761 51.1193 13.5035 47.2812 9.1897C42.206 3.49883 35.767 0.421546 28.1472 0.0421546C27.6832 0.0140515 27.2052 0 26.7413 0V0.028103V0C22.3409 0 18.1654 1.06792 14.3414 3.17564C10.5455 5.25527 7.45255 7.92506 5.1469 11.1007C2.82719 14.2763 1.23854 18.0422 0.423129 22.2998C0.28254 23.0023 0.198187 23.733 0.113834 24.4215C0.0716577 24.7447 0.0294812 25.082 -0.0126953 25.4052V28.5667C0.0294812 28.8899 0.0716577 29.2272 0.113834 29.5504C0.198187 30.2529 0.28254 30.9696 0.423129 31.6721C1.30884 36.1827 3.02401 40.1311 5.54055 43.4192C8.05708 46.6932 11.4171 49.377 15.5504 51.4145C18.4325 52.8337 21.6098 53.6628 25.0261 53.8876C25.1104 53.8876 25.1948 53.9157 25.2932 53.9438C25.3354 53.9578 25.3776 53.9719 25.4197 53.9719H25.4338H25.4479H28.6111C28.8923 53.9297 29.1875 53.9016 29.4687 53.8735C30.0732 53.8033 30.7059 53.733 31.3245 53.6347C37.5385 52.5808 42.7683 49.7705 46.8876 45.2459C52.2721 39.3443 54.6199 32.2904 53.8748 24.281ZM52.0894 27.0211C52.0612 40.8337 40.8142 52.0609 27.0365 52.0609H26.9522C13.1323 52.0187 1.89931 40.7635 1.92742 26.9649C1.9696 13.1663 13.1886 1.93911 26.9662 1.93911H27.0506C40.8985 1.98126 52.1175 13.2365 52.0894 27.0211Z" fill="#087868"/>
<path d="M36.3981 26.3326C37.9305 25.3771 38.6756 23.9017 38.7459 21.6956C38.8021 19.8829 38.3944 17.986 37.5087 15.9064C36.8339 14.3326 35.5405 13.4895 33.7409 13.4895H33.7269C31.9133 13.4895 30.5636 14.3747 29.9169 16.0047C29.214 17.7612 28.4689 20.1218 28.8204 22.7073C29.0453 24.2811 29.7342 25.4333 30.9432 26.2342C31.1963 26.4028 31.2666 26.5574 31.2525 26.8525C31.1682 28.637 31.0838 30.4497 30.9995 32.5434C30.9714 33.2459 30.9432 33.9907 30.9011 34.7916C30.887 35.1288 30.8729 35.5082 30.8448 35.9157C30.7745 37.2225 30.7042 38.8525 30.648 40.4965C30.6339 40.9602 30.6339 41.5504 30.8026 42.0703C31.1822 43.2647 32.4054 44.1218 33.7269 44.1218C33.8956 44.1218 34.0502 44.1078 34.2189 44.0797C35.8217 43.8127 36.8761 42.5761 36.848 41.0305C36.8198 39.7096 36.7495 38.3747 36.6792 37.0679C36.6511 36.4778 36.623 35.8876 36.5949 35.2975L36.5387 33.9766C36.4402 31.616 36.3278 29.185 36.2294 26.7963C36.2294 26.6417 36.2997 26.3888 36.3981 26.3326ZM34.233 26.0516C34.3174 27.8783 34.4017 29.6909 34.4861 31.5176L34.5704 33.3865V33.4567C34.5985 34.1593 34.6407 34.8759 34.6688 35.5785C34.7532 37.2928 34.8375 39.0633 34.9078 40.8057C34.9219 41.2413 34.8094 41.6066 34.5845 41.8455C34.3877 42.0562 34.1205 42.1546 33.7972 42.1546C33.6425 42.1546 33.4738 42.1265 33.3051 42.0843C32.7849 41.9298 32.5319 41.5223 32.56 40.8338C32.6022 39.6956 32.6584 38.5434 32.7147 37.4192C32.7428 36.8291 32.7709 36.2249 32.799 35.6347C32.9396 32.431 33.0942 29.2272 33.2348 26.0235C33.2629 25.4754 33.0521 25.1101 32.6162 24.9274C31.3228 24.4075 30.7324 23.3958 30.6621 21.6534C30.6058 19.897 31.126 18.253 31.7024 16.7354C32.0258 15.8783 32.7428 15.4146 33.7409 15.4146H33.755C34.7251 15.4146 35.4421 15.8783 35.7654 16.7214C36.3559 18.253 36.8901 19.9251 36.8058 21.6956C36.7495 22.89 36.5387 23.8033 35.6811 24.4497C35.4702 24.6043 35.2171 24.7588 34.9219 24.8853C34.4439 25.1101 34.219 25.4895 34.233 26.0516Z" fill="#087868"/>
<path d="M24.7292 23.4801C25.1228 23.1007 25.3056 22.6932 25.3056 22.1312C25.2915 20.5714 25.2915 18.9977 25.2915 17.4661C25.2915 16.5808 25.2915 15.7096 25.2915 14.8244C25.2915 14.7822 25.2915 14.7541 25.2915 14.712C25.2915 14.5012 25.3056 14.2764 25.1931 14.1218C25.0807 13.9672 24.7995 13.5878 24.4761 13.5316C24.448 13.5316 24.4199 13.5176 24.3777 13.5176C24.1247 13.5176 23.8013 13.6721 23.6045 13.8689C23.4077 14.0796 23.3795 14.4731 23.3655 14.6979C23.3655 15.7237 23.3514 16.7635 23.3514 17.7611C23.3514 19.0539 23.3514 20.3747 23.3374 21.6815C23.3374 21.9204 23.2108 22.2155 23.0421 22.3981C22.4235 23.0726 21.7768 23.7049 21.1582 24.2951C20.7927 24.6464 20.6381 25.0539 20.6662 25.63C20.7646 27.4707 20.863 29.3255 20.9474 31.1382C20.9755 31.7705 21.0036 32.3888 21.0458 33.0211V33.0914C21.0739 33.6815 21.102 34.2717 21.1301 34.8618C21.2285 36.7448 21.3269 38.6839 21.4113 40.5949C21.4254 40.8478 21.4113 41.2131 21.2848 41.5363C21.1301 41.9157 20.7505 42.1686 20.3006 42.1686C20.2022 42.1686 20.1179 42.1546 20.0195 42.1405C19.3868 41.986 19.0775 41.4942 19.1197 40.7354C19.3587 35.9438 19.6258 30.7869 19.8929 25.5597C19.9211 25.0679 19.7805 24.6885 19.4571 24.3654C19.19 24.0984 18.9088 23.8314 18.6417 23.5644C18.2762 23.1991 17.8966 22.8056 17.5029 22.4403C17.278 22.2295 17.1796 22.0047 17.1936 21.6675C17.2077 19.3349 17.2218 17.0445 17.1796 14.726C17.1796 14.3607 17.0109 13.9532 16.7719 13.7143C16.6594 13.6159 16.4626 13.5457 16.2236 13.5457C16.0971 13.5457 15.9565 13.5597 15.844 13.6019C15.4644 13.7143 15.2676 14.0656 15.2676 14.5995C15.2676 15.1616 15.2676 15.7377 15.2676 16.2998C15.2676 18.2951 15.2676 20.3466 15.2816 22.3841C15.2816 22.7494 15.5206 23.1288 15.7175 23.3396C16.3079 24 16.9546 24.6183 17.5732 25.2084C17.8403 25.4614 17.9388 25.7003 17.9247 26.0656C17.7138 29.8595 17.5311 33.7237 17.3483 37.4614L17.2921 38.5714C17.278 38.7963 17.2639 39.007 17.2499 39.2319C17.2077 39.8642 17.1655 40.5106 17.1936 41.1569C17.2499 42.7729 18.5011 44.0515 20.1038 44.1359C20.1601 44.1359 20.2163 44.1359 20.2725 44.1359C21.8752 44.1359 23.1405 43.0258 23.3092 41.4942C23.3936 40.6651 23.3374 39.7939 23.2952 38.9649C23.2811 38.726 23.2671 38.4731 23.253 38.2342C23.1687 36.4918 23.0843 34.7213 22.9999 33.007C22.8875 30.6745 22.7609 28.2717 22.6625 25.897C22.6485 25.7424 22.7469 25.5035 22.8875 25.363C23.492 24.6745 24.1106 24.0562 24.7292 23.4801Z" fill="#087868"/>
<path d="M40.0398 15.0492C39.843 15.0492 39.6462 15.1195 39.4634 15.26C39.0276 15.6113 38.9995 16.1733 39.4072 16.7635C39.5478 16.9462 39.6883 17.1429 39.8149 17.3255C40.1242 17.7471 40.4616 18.1827 40.7146 18.6464C43.8779 24.1686 43.8919 29.7471 40.7568 35.2412C40.3069 36.0141 39.7165 36.7307 39.14 37.4333C38.9151 37.7143 38.6761 37.9953 38.4512 38.2764C38.184 38.6276 37.945 38.9649 38.1559 39.4426C38.3106 39.808 38.6058 40.0187 38.9713 40.0187C39.2947 40.0187 39.618 39.8642 39.8992 39.5691C43.3155 35.986 45.0307 31.7143 45.0166 26.8665C44.8901 22.5246 43.5545 18.8431 40.9396 15.6113C40.6725 15.2319 40.3632 15.0492 40.0398 15.0492Z" fill="#087868"/>
<path d="M15.2671 37.9672C15.1828 37.8829 15.0984 37.7845 15.014 37.6862C10.9792 32.9508 9.92475 27.5269 11.8649 21.555C12.385 19.9812 13.2426 18.6042 13.9315 17.5784C14.1143 17.2974 14.1986 17.0023 14.1424 16.7353C14.0862 16.4965 13.9456 16.2857 13.7206 16.1452C13.5519 16.0468 13.3832 15.9906 13.2005 15.9906C12.8771 15.9906 12.5678 16.1733 12.3429 16.4965C10.1356 19.6159 9.01093 23.0585 8.96875 26.726C8.96875 30.6463 9.99505 34.0328 12.0758 37.096C12.61 37.8829 13.2567 38.6136 13.8753 39.3302C13.9596 39.4285 14.044 39.5269 14.1424 39.6253C14.3673 39.8782 14.6204 40.0047 14.9016 40.0047C15.1406 40.0047 15.3515 39.9063 15.5483 39.7377C15.956 39.3723 15.956 38.8103 15.5623 38.3185C15.478 38.2061 15.3655 38.0796 15.2671 37.9672Z" fill="#087868"/>
<path d="M20.9757 11.9859C21.0881 11.9859 21.2006 11.9718 21.3131 11.9437C21.5099 11.8875 21.7067 11.8313 21.8895 11.7611C21.9457 11.747 22.002 11.7189 22.0723 11.7049C23.6469 11.199 25.2355 10.932 26.782 10.932C27.1053 10.932 27.4287 10.9461 27.738 10.9601C28.5112 11.0163 29.3126 11.1288 30.0717 11.2552C30.2967 11.2833 30.5216 11.3255 30.7466 11.3536C30.8169 11.3676 30.8872 11.3676 30.9574 11.3676C31.562 11.3676 31.9978 10.9742 31.9978 10.4262C31.9978 10.0749 31.8432 9.63929 31.084 9.45662C29.7343 9.14749 28.3706 8.99292 27.035 8.99292C25.9103 8.99292 24.7716 9.10533 23.6609 9.33016C22.6487 9.52688 21.6224 9.85006 20.7226 10.1311C20.4555 10.2154 20.2587 10.37 20.1462 10.5948C20.0337 10.8196 20.0197 11.0866 20.104 11.3536C20.2165 11.747 20.5399 11.9859 20.9757 11.9859Z" fill="#087868"/>
<path d="M17.9668 21.3864C17.9668 21.541 17.9668 21.7096 18.009 21.8642C18.1355 22.2998 18.4307 22.5387 18.8666 22.5668C18.8947 22.5668 18.9087 22.5668 18.9369 22.5668C19.3446 22.5668 19.6539 22.356 19.7944 21.9626C19.8788 21.7377 19.8929 21.4848 19.8929 21.274C19.8929 20.4871 19.8929 19.6862 19.8929 18.9134C19.8929 18.6323 19.8929 18.3513 19.8929 18.0703C19.8929 17.7893 19.8929 17.5082 19.8929 17.2272C19.8929 16.4403 19.8929 15.6253 19.8929 14.8244C19.8929 14.6277 19.8788 14.3607 19.8085 14.1359C19.682 13.7284 19.3586 13.5035 18.9369 13.5035C18.9228 13.5035 18.9087 13.5035 18.8947 13.5035C18.4307 13.5176 18.1214 13.7846 18.009 14.2342C17.9668 14.3888 17.9668 14.5434 17.9668 14.6979V14.712C17.9668 16.9883 17.9668 19.2366 17.9668 21.3864Z" fill="#087868"/>
<path d="M20.666 21.6533C20.7504 22.2154 21.1159 22.5667 21.622 22.5667C21.6501 22.5667 21.6642 22.5667 21.6923 22.5667C22.2265 22.5386 22.578 22.1592 22.578 21.5831C22.5921 20.74 22.5921 19.8828 22.5921 19.0398C22.5921 18.6885 22.5921 18.3512 22.5921 17.9999V17.9297C22.5921 17.6065 22.5921 17.2833 22.5921 16.9601C22.5921 16.1311 22.5921 15.2599 22.578 14.4168C22.564 13.8688 22.1844 13.4754 21.6501 13.4613C21.6361 13.4613 21.6361 13.4613 21.622 13.4613C21.1581 13.4613 20.7785 13.7985 20.6801 14.3184C20.652 14.459 20.652 14.6135 20.652 14.754C20.652 15.1194 20.652 15.4988 20.652 15.8641V16.2716V17.3114C20.652 18.5901 20.652 19.8828 20.652 21.1615V21.2458C20.652 21.3864 20.6379 21.5128 20.666 21.6533Z" fill="#087868"/>
<path d="M28.9052 42.9835C28.877 42.9835 28.8489 42.9835 28.8208 42.9835C28.4131 42.9976 28.0054 43.0257 27.5836 43.0538C27.4009 43.0678 27.2181 43.0819 27.0213 43.0819C26.8385 43.0678 26.6557 43.0678 26.473 43.0538C26.0512 43.0257 25.6294 42.9976 25.1936 42.9835C25.1655 42.9835 25.1374 42.9835 25.1093 42.9835C24.4907 42.9835 24.1111 43.2927 24.0549 43.8126C24.0267 44.0936 24.097 44.3606 24.2657 44.5573C24.4485 44.7681 24.7016 44.8805 25.0249 44.8945C25.6716 44.9226 26.3464 44.9226 27.0213 44.9226C27.668 44.9226 28.3147 44.9086 28.9754 44.8945C29.3129 44.8805 29.58 44.7681 29.7627 44.5573C29.9314 44.3746 30.0017 44.1217 29.9877 43.8407C29.9455 43.3067 29.5378 42.9835 28.9052 42.9835Z" fill="#087868"/>
</svg>
