<svg width="50" height="45" viewBox="0 0 50 45" fill="none" xmlns="http://www.w3.org/2000/svg">
<path d="M49.841 32.5234C49.9337 32.2069 49.9868 31.864 49.9868 31.5211C50 22.6583 50 13.3866 49.9868 3.19168C49.9868 1.31887 48.6748 0.0131887 46.793 0.0131887C39.6236 0 32.441 0 25.2584 0C17.9035 0 10.5486 0 3.19375 0C1.61675 0 0.503578 0.857269 0.0795123 2.40035C0.0662603 2.4663 0.0265041 2.51905 0 2.57181V32.1146C0.0132521 32.1674 0.0397562 32.2201 0.0530082 32.2729C0.106016 32.4311 0.159025 32.5762 0.212033 32.7213C0.689107 33.9478 1.80228 34.66 3.2335 34.66C4.42619 34.66 5.71164 34.66 7.28863 34.66C8.21627 34.66 9.13067 34.66 10.0583 34.66C10.986 34.66 11.9003 34.66 12.828 34.66H12.8545H16.8566H19.8648H22.873H23.1513H23.5091H23.867L23.8935 35.0161C23.8935 35.0689 23.9067 35.1348 23.9067 35.1876C23.92 35.3063 23.9332 35.425 23.9332 35.5569C23.9332 35.8998 23.9332 36.2295 23.9332 36.5724C23.9332 37.2054 23.9332 37.8649 23.9465 38.5111C23.9597 38.854 23.8802 39.3288 23.1911 39.4739C19.295 40.2916 15.3459 41.1225 11.516 41.9402C10.1113 42.2435 8.7066 42.5337 7.30188 42.837C6.87782 42.9294 6.54651 43.1272 6.37424 43.4042C6.22847 43.6152 6.18871 43.879 6.25497 44.1427C6.37424 44.6967 6.7718 44.9868 7.36814 44.9868C7.50066 44.9868 7.63318 44.9736 7.77896 44.9472C9.44872 44.5911 11.1317 44.2351 12.8015 43.879C16.6313 43.0744 20.5937 42.2304 24.4898 41.4127C24.6488 41.3731 24.8343 41.3599 25.0066 41.3599C25.1922 41.3599 25.3909 41.3731 25.5765 41.4127C29.9231 42.3095 34.3361 43.2327 38.6165 44.1295C39.9417 44.4065 41.2669 44.6835 42.5921 44.9604C42.6981 44.9868 42.8041 45 42.9101 45C43.48 45 43.9041 44.6703 44.0101 44.1427C44.0631 43.879 44.0233 43.6152 43.8643 43.3778C43.692 43.114 43.4005 42.9294 43.0427 42.8502C37.9009 41.7688 32.4145 40.6213 26.9547 39.5003C26.5439 39.4212 26.0933 39.2233 26.1065 38.4716C26.1331 37.6802 26.1198 36.9021 26.1198 36.0844C26.1198 35.7547 26.1198 35.425 26.1198 35.0821V34.6864H26.5174H27.2065H27.2462H32.5205H37.7949C40.7501 34.6864 43.7053 34.6864 46.6472 34.6864C48.2772 34.66 49.4302 33.8819 49.841 32.5234ZM2.18659 20.2975C2.18659 14.6659 2.18659 9.03429 2.18659 3.4027C2.18659 2.4663 2.47813 2.17614 3.40578 2.17614H24.7813H46.5942C47.3628 2.17614 47.8134 2.36079 47.8134 3.31037C47.8134 10.6038 47.8134 17.8839 47.8134 25.1773C47.8134 25.2828 47.8002 25.3751 47.8002 25.4675C47.8002 25.507 47.7869 25.5598 47.7869 25.6125L47.7604 25.9818H47.3893H2.58415H2.18659V25.5862V25.0586V20.2975ZM47.8134 31.5607C47.8134 32.1146 47.4689 32.4575 46.9123 32.4839C46.793 32.4839 46.687 32.4839 46.581 32.4839H46.4882H46.3954H24.7813H3.59131H3.49854H3.40578C3.31301 32.4839 3.19375 32.4839 3.07448 32.4839C2.51789 32.4575 2.17334 32.1014 2.17334 31.5607C2.17334 30.8617 2.17334 30.189 2.17334 29.4637C2.17334 29.1867 2.17334 28.8965 2.17334 28.6064V28.2107H2.5709H47.4026H47.8002V28.6064C47.8002 28.8965 47.8002 29.1735 47.8002 29.4505C47.8134 30.189 47.8134 30.8749 47.8134 31.5607Z" fill="#087868"/>
</svg>
