<svg width="57" height="41" viewBox="0 0 57 41" fill="none" xmlns="http://www.w3.org/2000/svg">
<g clip-path="url(#clip0_527_1484)">
<path d="M43.5189 2.92547C38.9492 0.984811 34.0259 0 28.8904 0C26.2731 0 23.5427 0.260685 20.7698 0.753091C14.4883 1.89721 8.64544 4.7213 3.39674 9.13847C2.36398 10.0074 1.38781 10.9488 0.45408 11.8757C0.0155093 12.3101 -0.0976702 12.8315 0.114541 13.4253C0.326753 13.9901 0.722881 14.2942 1.34537 14.3667C1.38781 14.3667 1.43025 14.3667 1.47269 14.3667C1.86882 14.3667 2.22251 14.1784 2.64693 13.7584C4.86808 11.5281 7.28729 9.61639 9.81968 8.09573C15.5918 4.64889 21.8308 2.91099 28.3811 2.91099C29.8666 2.91099 31.3945 2.99788 32.9224 3.17167C37.6052 3.72201 42.1324 5.19922 46.3483 7.58884C49.1637 9.18191 51.8092 11.2095 54.2426 13.6136C54.469 13.8308 54.7944 14.1349 55.148 14.2798C55.3178 14.3522 55.4734 14.3811 55.6291 14.3811C56.2798 14.3811 56.7184 13.7729 57.0014 13.237V12.5563C56.9589 12.4839 56.9023 12.4115 56.8599 12.3391C56.7326 12.1219 56.6052 11.9191 56.4496 11.7743C52.46 7.84952 48.1026 4.88061 43.5189 2.92547Z" fill="#087868"/>
<path d="M47.7478 20.4348C42.7537 15.4817 36.7694 12.7735 29.9503 12.397C29.4127 12.368 28.8751 12.3535 28.3375 12.3535C22.9332 12.3535 17.9391 13.9031 13.4544 16.9734C12.2519 17.7989 11.1342 18.7982 10.0449 19.7541C9.76191 20.0148 9.45066 20.2755 9.16771 20.5361C8.715 20.9272 8.58767 21.463 8.78573 22.0568C8.9838 22.6361 9.37993 22.9547 9.97412 23.0416C10.0307 23.0561 10.0873 23.0561 10.1439 23.0561C10.6532 23.0561 11.021 22.7375 11.5303 22.2451C16.0858 17.8279 21.6316 15.3659 27.135 15.2935H27.2198C31.7753 15.2935 35.1424 15.9307 38.4529 17.4369C41.0985 18.6389 43.5601 20.3623 45.7671 22.5492C46.1067 22.8968 46.5028 23.0706 46.8989 23.0706C47.2667 23.0706 47.6063 22.9113 47.8751 22.6216C48.4834 21.9844 48.4268 21.101 47.7478 20.4348Z" fill="#087868"/>
<path d="M39.103 29.1822C36.2028 26.3436 32.6801 24.794 28.9169 24.7361C26.6109 24.7361 24.5312 25.1271 22.7345 25.8947C20.9519 26.6623 19.3391 27.7629 17.9102 29.1677C17.2877 29.7905 17.2453 30.645 17.7829 31.2532C18.0517 31.5574 18.4195 31.7311 18.8015 31.7311C19.1552 31.7311 19.4947 31.6008 19.7918 31.3546C19.8908 31.2677 20.004 31.1663 20.1031 31.0649C20.2021 30.9636 20.3011 30.8767 20.4143 30.7753C22.8194 28.7043 25.4932 27.6471 28.3369 27.6471C29.6526 27.6471 31.0249 27.8643 32.4113 28.3133C34.0524 28.8346 35.5662 29.7905 37.1931 31.3256C37.4761 31.6008 37.8298 31.7456 38.1835 31.7456C38.5796 31.7456 38.9474 31.5718 39.2162 31.2532C39.768 30.645 39.7255 29.7905 39.103 29.1822Z" fill="#087868"/>
<path d="M26.4411 38.8566C26.4269 39.4359 26.6392 39.9717 27.0211 40.3773C27.4031 40.7828 27.9266 41 28.4783 41H28.4925C29.6526 41 30.558 40.0731 30.5721 38.8856C30.5721 37.727 29.6809 36.8001 28.5208 36.7856H28.4925V36.5684V36.7856C27.3607 36.8001 26.4552 37.698 26.4411 38.8566Z" fill="#087868"/>
</g>
<defs>
<clipPath id="clip0_527_1484">
<rect width="57" height="41" fill="white"/>
</clipPath>
</defs>
</svg>
