<svg width="55" height="48" viewBox="0 0 55 48" fill="none" xmlns="http://www.w3.org/2000/svg">
<g clip-path="url(#clip0_527_1479)">
<path d="M0 41.8891C0.373076 41.2737 0.93269 41.1163 1.63579 41.1306C5.92617 41.1592 10.2309 41.1449 14.5213 41.1449C14.7222 41.1449 14.9087 41.1449 15.2531 41.1449C15.0235 40.9588 14.8943 40.83 14.7509 40.7156C9.61388 36.3363 7.00235 30.7692 6.88756 24.0286C6.87321 23.2558 6.87321 22.4973 6.88756 21.7245C6.91626 19.8068 8.35116 18.347 10.2739 18.3041C11.3788 18.2755 12.498 18.3041 13.6029 18.3041C23.1307 18.3041 32.6441 18.3041 42.1719 18.3041C44.4104 18.3041 45.831 19.7209 45.8453 21.9392C45.8453 22.2969 45.8453 22.6547 45.8453 23.0125C45.8453 23.1556 45.8597 23.2987 45.874 23.3846C46.8928 23.2129 47.8972 22.9982 48.9017 22.8837C50.107 22.7406 51.298 22.8837 52.4028 23.4562C54.2539 24.415 54.8565 26.0894 55 28.0215C55.1579 30.2111 54.2252 31.9284 52.6755 33.3739C50.7957 35.1485 48.5286 36.2934 46.1179 37.1377C44.2382 37.7961 42.2867 38.254 40.364 38.8265C40.077 38.9123 39.7756 39.0841 39.5461 39.2701C38.8717 39.8426 38.2403 40.4579 37.5085 41.1306C37.7811 41.1306 37.9677 41.1306 38.1542 41.1306C42.5163 41.1306 46.8928 41.1306 51.2549 41.1306C51.8576 41.1306 52.3741 41.2451 52.6181 41.8461C52.862 42.4615 52.575 42.9052 52.1445 43.3059C51.3553 44.0644 50.5948 44.8515 49.82 45.61C48.2273 47.1842 46.3045 47.9714 44.0804 47.9714C32.2711 47.9714 20.4618 47.9714 8.63814 47.9714C6.48578 47.9714 4.60605 47.2415 3.05635 45.7531C2.15236 44.9231 1.29142 44.0501 0.430472 43.1771C0.272632 43.0197 0.143491 42.8193 0 42.6476C0 42.39 0 42.1324 0 41.8891ZM26.3593 20.5653C21.0788 20.5653 15.7983 20.5653 10.5179 20.5653C9.59953 20.5653 9.14036 20.9946 9.15471 21.8962C9.18341 23.4132 9.14036 24.9445 9.34125 26.4329C10.2022 32.8444 13.5312 37.6529 19.113 40.9159C19.3282 41.0447 19.6152 41.1163 19.8735 41.1163C24.1925 41.1306 28.4973 41.1306 32.8163 41.1163C33.0746 41.1163 33.3473 41.0447 33.5768 40.9302C37.8385 38.5116 40.7944 35.0054 42.4589 30.4114C43.4347 27.7066 43.6068 24.9159 43.5351 22.0823C43.5064 20.9374 43.1764 20.5653 42.0284 20.5653C36.8054 20.5653 31.5823 20.5653 26.3593 20.5653ZM3.98904 43.4347C4.10384 43.5778 4.16123 43.6637 4.23298 43.7352C5.4957 45.1091 7.05975 45.7245 8.92513 45.7245C20.5335 45.7102 32.1563 45.7245 43.7647 45.7102C44.1952 45.7102 44.6256 45.6959 45.0418 45.6243C46.5341 45.3953 47.7107 44.6368 48.7151 43.4347C33.7921 43.4347 18.9408 43.4347 3.98904 43.4347ZM42.3728 35.9642C42.3441 35.9642 42.4015 35.9785 42.4446 35.9642C44.6256 35.3345 46.7493 34.5617 48.7438 33.4454C49.8343 32.83 50.8531 32.1002 51.671 31.1413C52.6324 30.0107 52.8907 28.7084 52.575 27.2916C52.2737 25.932 51.4558 25.2594 50.0639 25.1735C48.7725 25.0876 47.5528 25.3882 46.3188 25.7317C45.874 25.8605 45.7018 26.0894 45.6588 26.5331C45.4866 28.3649 45.0561 30.1538 44.3386 31.8569C43.7503 33.2594 43.0329 34.6046 42.3728 35.9642Z" fill="#087868"/>
<path d="M25.2113 11.3917C25.2113 9.90332 25.6561 8.55806 26.5458 7.35591C27.7798 5.68149 27.8085 3.6636 26.6319 1.91763C26.2014 1.28793 26.2875 0.600992 26.8328 0.214588C27.3924 -0.171817 28.0381 -0.0287039 28.4973 0.600992C30.2048 2.8908 30.2048 6.22532 28.4542 8.60099C27.4928 9.90332 27.2489 11.3201 27.7224 12.8514C27.8515 13.2808 28.1098 13.6958 28.3394 14.0822C28.7412 14.7405 28.6838 15.3988 28.1385 15.7853C27.5933 16.1717 26.9189 16.0142 26.4597 15.3988C25.5987 14.1967 25.197 12.8514 25.2113 11.3917Z" fill="#087868"/>
<path d="M36.6614 4.55099C36.6614 6.06799 36.2309 7.42756 35.3269 8.64402C34.0929 10.3184 34.0642 12.3506 35.2265 14.0823C35.6569 14.712 35.5708 15.3989 35.0256 15.7853C34.4803 16.1717 33.8202 16.0143 33.3467 15.3989C31.6535 13.1521 31.6392 9.78892 33.3611 7.44187C34.3942 6.03936 34.6238 4.52237 34.0355 2.89089C33.892 2.51879 33.6624 2.17532 33.4472 1.81754C33.0884 1.23078 33.1889 0.572459 33.7055 0.200366C34.2364 -0.171727 34.8821 -0.0572367 35.3126 0.500903C36.2309 1.70305 36.6614 3.06262 36.6614 4.55099Z" fill="#087868"/>
<path d="M22.9018 4.55099C22.9018 6.06799 22.4713 7.42756 21.5673 8.64402C20.3333 10.3184 20.3046 12.3506 21.4669 14.0823C21.8974 14.712 21.8113 15.3989 21.266 15.7853C20.7207 16.1717 20.0607 16.0143 19.5872 15.3989C17.9083 13.1664 17.8796 9.78892 19.5728 7.4848C20.6203 6.06799 20.8786 4.55099 20.2759 2.89089C20.1324 2.51879 19.9028 2.16101 19.6876 1.81754C19.3289 1.23078 19.4293 0.572459 19.9459 0.200366C20.4768 -0.171727 21.1225 -0.0572367 21.553 0.500903C22.4857 1.70305 22.9018 3.06262 22.9018 4.55099Z" fill="#087868"/>
</g>
<defs>
<clipPath id="clip0_527_1479">
<rect width="55" height="48" fill="white"/>
</clipPath>
</defs>
</svg>
