<svg width="44" height="49" viewBox="0 0 44 49" fill="none" xmlns="http://www.w3.org/2000/svg">
<path d="M43.9869 39.8189C43.9869 39.2604 43.9869 38.715 43.9869 38.1565C43.9869 38.092 43.9346 38.0396 43.87 38.0396H41.3742H41.3619C41.1467 38.0396 40.9723 37.8652 40.9723 37.65C40.9723 37.5332 40.9723 37.4163 40.9723 37.2994C40.9723 37.0656 40.9723 36.8578 40.9723 36.6371C40.9723 36.2604 40.9723 35.8838 40.9857 35.5072C40.9991 34.663 41.0125 33.8708 40.9053 33.0916C40.6775 31.5332 39.9406 30.2085 38.7616 29.2474C37.5959 28.2994 36.1087 27.7929 34.4741 27.7929C33.1611 27.7929 31.848 27.7929 30.535 27.7929H27.4802H24.4254H24.3852H23.7689H23.7565C23.5413 27.7929 23.3669 27.6185 23.3669 27.4033V26.7669C23.3669 26.0786 23.3669 25.3773 23.3669 24.689C23.3669 22.663 23.3669 20.5591 23.3803 18.4942C23.3803 18.1695 23.2999 18.0137 23.0186 17.8189C22.0941 17.1695 21.1696 16.4942 20.2853 15.8448C19.4814 15.2604 18.6641 14.663 17.8468 14.0786C17.4851 13.8189 17.3109 13.4942 17.3243 13.0396C17.3377 11.4942 17.3377 9.92276 17.3243 8.41627V8.08478C17.3243 7.64385 16.9668 7.2864 16.5259 7.2864H13.211H12.809V6.89679V2.53315C12.809 2.31798 12.9835 2.14354 13.1987 2.14354H13.211C13.546 2.14354 13.8809 2.14354 14.2159 2.14354C14.5374 2.14354 14.8724 2.14354 15.1939 2.14354C15.7433 2.14354 16.1854 2.14354 16.5874 2.13056C16.6142 2.13056 16.641 2.13056 16.6812 2.13056C17.2171 2.13056 17.7262 2.24744 18.222 2.49419C19.4278 3.09159 20.6069 3.66302 21.8663 4.27341C21.885 4.28247 21.9037 4.29152 21.9223 4.30057C22.4734 4.56762 23.1369 4.34854 23.4205 3.80588C23.6849 3.29327 23.4728 2.66826 22.9535 2.4172C22.9439 2.41256 22.9343 2.40792 22.9248 2.40328C21.8127 1.85783 20.7542 1.35133 19.6824 0.831854C19.2938 0.637049 18.9053 0.442243 18.5301 0.234451C18.2489 0.0857687 17.9371 0.0136719 17.619 0.0136719H7.14072C6.54182 0.0136719 6.05631 0.499181 6.05631 1.09809C6.05631 1.69699 6.54182 2.1825 7.14072 2.1825H10.1428H10.1551C10.3703 2.1825 10.5447 2.35694 10.5447 2.57211V6.94874V7.33835H10.1428H7.12083C6.52551 7.33835 6.04291 7.82095 6.04291 8.41627C6.04291 8.89679 6.04291 8.4812 6.04291 8.96172C6.04291 10.3124 6.04291 11.702 6.05631 13.0786C6.05631 13.5461 5.88213 13.8708 5.49358 14.1565C4.5557 14.8319 3.60442 15.5202 2.69333 16.1825C1.87604 16.7799 1.03194 17.3903 0.201248 17.9877C0.0538668 18.0916 0.0136719 18.1695 0.0136719 18.3643C0.0136719 23.3643 0.0136719 28.4422 0.0270702 33.3513C0.0270702 36.715 0.0270702 40.0786 0.0270702 43.4422C0.0270702 43.6371 0.0538668 43.8319 0.10746 43.9877C0.335231 44.676 0.589799 45.3903 0.81757 46.0656C1.13913 47.0007 1.47409 47.9617 1.78225 48.9228C1.80904 48.9877 1.82244 49.0267 1.83584 49.0267C1.84924 49.0267 1.88943 49.0396 1.96982 49.0396C7.16837 49.0396 12.3803 49.0396 17.5788 49.0396C24.2914 49.0396 31.2317 49.0396 38.0648 49.0267C38.1988 49.0267 38.373 48.9617 38.4668 48.8838C39.4851 48.0137 40.5167 47.1176 41.5082 46.2474C42.2585 45.5851 43.0356 44.9098 43.7993 44.2474C43.9601 44.1046 44.0137 43.9877 44.0137 43.7929C43.9869 42.4422 43.9869 41.1176 43.9869 39.8189ZM28.887 29.9487C30.8432 29.9487 32.7859 29.9617 34.6751 29.9747C36.9394 29.9877 38.7214 31.7409 38.7482 33.9617C38.7616 34.7929 38.7616 35.6111 38.7482 36.4812C38.7482 36.8708 38.7482 37.2604 38.7482 37.65C38.7482 37.8652 38.5737 38.0396 38.3586 38.0396H38.3462H19.3206C19.2096 38.0396 19.1035 37.9934 19.0279 37.912L19.0259 37.9098L19.0125 37.8968C18.9723 37.8578 18.8383 37.7409 18.8383 37.5591C18.8383 37.1435 18.8383 36.715 18.8249 36.2994C18.8115 35.3254 18.7981 34.2994 18.8919 33.3124C19.0661 31.4812 20.848 29.9747 22.8712 29.9617C24.9211 29.9487 26.9443 29.9487 28.887 29.9487ZM16.239 15.6241C17.6056 16.5981 19.1464 17.715 20.6471 18.8448C20.915 19.0396 21.1026 19.4163 21.1294 19.7669C21.1562 20.3124 21.1562 20.8448 21.1428 21.4033C21.1428 21.6111 21.1428 21.8319 21.1428 22.0396C21.1428 22.2548 20.9684 22.4293 20.7532 22.4293H20.7408H13.2244H13.2121C12.9969 22.4293 12.8224 22.2548 12.8224 22.0396V15.728C12.8224 15.5128 12.9969 15.3383 13.2121 15.3383H13.2244C13.4388 15.3383 13.6397 15.3383 13.8541 15.3383C14.0551 15.3383 14.2561 15.3383 14.457 15.3383C14.8858 15.3383 15.2207 15.3383 15.5289 15.3513C15.8237 15.3513 16.105 15.5202 16.239 15.6241ZM8.28042 12.7669V9.8838V9.49419H8.68237H14.6714H15.0734V9.8838V12.7539V13.1435H14.6714H8.68237H8.28042V12.7669ZM2.23779 19.4682C2.25119 19.1955 2.46556 19.0007 2.66654 18.8448C4.18054 17.7409 5.68115 16.65 7.11477 15.6111C7.28895 15.4812 7.51672 15.3383 7.78469 15.3383C8.10625 15.3254 8.4546 15.3254 8.91014 15.3254C9.11112 15.3254 9.31209 15.3254 9.51307 15.3254C9.71404 15.3254 9.92841 15.3254 10.1428 15.3254H10.1551C10.3703 15.3254 10.5447 15.4998 10.5447 15.715V22.0137C10.5447 22.2288 10.3703 22.4033 10.1551 22.4033H10.1428H2.62634H2.614C2.39883 22.4033 2.22439 22.2288 2.22439 22.0137C2.22439 21.8189 2.22439 21.6111 2.22439 21.4163C2.22439 20.7929 2.22439 20.1306 2.23779 19.4682ZM15.7835 46.8059C15.7031 46.8059 15.6361 46.8189 15.5825 46.8189C15.4619 46.8319 15.3547 46.8448 15.2475 46.8448C14.658 46.8448 14.0551 46.8448 13.4656 46.8448H12.2061H10.9467C8.91014 46.8448 6.52525 46.8448 4.16715 46.8578H4.15375C3.22316 46.8578 2.9184 45.6824 2.66157 44.7879C2.30421 43.5434 2.15116 42.1657 2.1708 40.4812C2.22439 36.9487 2.21099 33.3383 2.19759 29.8578C2.19759 28.4682 2.1842 27.0267 2.1842 25.6111V24.9877C2.1842 24.7725 2.35863 24.5981 2.57381 24.5981H2.58615H20.6873H20.6996C20.9148 24.5981 21.0892 24.7725 21.0892 24.9877C21.0892 25.1825 21.0892 25.3903 21.0892 25.5851C21.0892 26.2474 21.0892 26.9358 21.0758 27.6111C21.0624 27.9228 20.7408 28.1435 20.5533 28.2345C17.8736 29.4163 16.574 31.3903 16.5606 34.2864C16.5606 35.0396 16.5606 35.7799 16.5606 36.5591C16.5606 36.9228 16.5606 37.2864 16.5606 37.65C16.5606 37.8652 16.3861 38.0396 16.171 38.0396H16.1586H13.7408C13.6332 38.0396 13.546 38.1269 13.546 38.2345C13.546 38.702 13.546 39.1695 13.546 39.6241C13.546 40.9487 13.546 42.3254 13.5326 43.676C13.5326 43.9098 13.5862 44.0267 13.7469 44.1695C14.2695 44.5981 14.7786 45.0526 15.3145 45.5332C15.5289 45.728 15.7567 45.9228 15.9844 46.1176L16.0034 46.1342C16.258 46.3572 16.1207 46.7766 15.7835 46.8059ZM41.7628 42.715C41.7494 43.0267 41.4948 43.2864 41.3876 43.3773C40.3292 44.3124 39.0697 45.4163 37.7701 46.5332C37.5557 46.715 37.2208 46.8319 36.926 46.8319C34.2329 46.8319 31.4729 46.8448 28.6994 46.8448C26.06 46.8448 23.3535 46.8448 20.6337 46.8319C20.3523 46.8319 20.0441 46.715 19.8432 46.5461C18.5971 45.4812 17.3511 44.3903 16.1854 43.3643C16.0112 43.2085 15.8237 43.0137 15.8103 42.741C15.7969 42.2215 15.7969 41.702 15.7969 41.1695C15.7969 40.9877 15.7969 40.8059 15.7969 40.6241C15.7969 40.4089 15.9713 40.2345 16.1865 40.2345H16.1988H41.3608H41.3732C41.5883 40.2345 41.7628 40.4089 41.7628 40.6241C41.7628 40.8059 41.7628 41.0007 41.7628 41.1825C41.7762 41.715 41.7762 42.2085 41.7628 42.715Z" fill="#087868"/>
</svg>
