<svg width="38" height="52" viewBox="0 0 38 52" fill="none" xmlns="http://www.w3.org/2000/svg">
<path d="M0 51.7335C0 34.4792 0 17.2691 0 0C12.5352 0 25.0704 0 37.6351 0C37.6351 17.2396 37.6351 34.4644 37.6351 51.7335C25.0999 51.7335 12.5795 51.7335 0 51.7335ZM35.2608 49.374C35.2608 39.9357 35.2608 30.5712 35.2608 21.1771C24.2888 21.1771 13.3611 21.1771 2.38906 21.1771C2.38906 30.5859 2.38906 39.9799 2.38906 49.374C13.3611 49.374 24.2888 49.374 35.2608 49.374ZM2.38906 2.34482C2.38906 7.86031 2.38906 13.3021 2.38906 18.7586C13.3758 18.7586 24.3036 18.7586 35.2608 18.7586C35.2608 13.2726 35.2608 7.81607 35.2608 2.34482C24.2888 2.34482 13.3611 2.34482 2.38906 2.34482Z" fill="#087868"/>
<path d="M7.08008 23.5514C7.86169 23.5514 8.6138 23.5514 9.38066 23.5514C9.38066 27.4594 9.38066 31.3232 9.38066 35.2313C8.59905 35.2313 7.86169 35.2313 7.08008 35.2313C7.08008 31.3527 7.08008 27.4889 7.08008 23.5514Z" fill="#087868"/>
<path d="M7.08008 9.42358C7.86169 9.42358 8.6138 9.42358 9.38066 9.42358C9.38066 11.7684 9.38066 14.069 9.38066 16.4138C8.59905 16.4138 7.86169 16.4138 7.08008 16.4138C7.08008 14.0985 7.08008 11.7832 7.08008 9.42358Z" fill="#087868"/>
</svg>
