<svg width="136" height="150" viewBox="0 0 136 150" fill="none" xmlns="http://www.w3.org/2000/svg">
<g clip-path="url(#clip0_530_2352)">
<path d="M125.645 0.149291C125.458 0.111968 125.308 0.0746454 125.158 0H10.7299C10.1297 0.261259 9.49186 0.485195 8.89159 0.671809C7.3909 1.19433 6.00276 1.71685 4.83972 2.4633C1.68828 4.62802 0.0375172 7.91242 0 12.2419C0 12.5778 0 12.9137 0 13.2869V39.1142C0 71.6596 0 104.205 0 136.713C0 140.408 0.750345 142.983 2.4011 145.148C4.87724 148.358 8.14124 149.925 12.3807 149.963C14.8943 150 17.483 150 19.9592 149.963C21.0847 149.963 22.1727 149.963 23.2982 149.963H51.0234C75.072 149.963 99.1205 149.963 123.132 149.963C128.572 149.963 132.361 147.761 134.762 143.245C135.85 141.155 136 138.878 136 136.937C136 108.087 136 79.1988 136 50.3483V29.2983C136 27.6188 136 25.9393 135.962 24.2598C135.925 20.5275 135.925 16.6833 136 12.9137C136.188 6.34486 131.836 1.00771 125.645 0.149291ZM129.772 136.9C129.772 138.766 129.397 140.184 128.684 141.155C127.934 142.2 126.696 142.759 125.645 143.245C125.458 143.319 125.27 143.431 125.082 143.506C124.67 143.73 124.22 143.767 123.807 143.767C123.619 143.767 123.432 143.767 123.244 143.73C123.132 143.73 122.982 143.73 122.869 143.73C86.9274 143.73 49.7479 143.73 13.1685 143.73C12.1556 143.73 10.9175 143.692 9.792 143.282C7.80359 142.573 6.528 140.931 6.22786 138.579C6.15283 138.094 6.15283 137.646 6.19034 137.236V136.937C6.19034 107.863 6.19034 78.7883 6.19034 49.6765V37.0988H129.81V54.2672C129.81 81.3635 129.81 109.356 129.772 136.9ZM129.81 22.431C129.81 24.4464 129.81 26.4618 129.81 28.4399C129.81 28.7385 129.81 29.6716 129.134 30.306C128.759 30.642 128.234 30.8286 127.634 30.8286C127.559 30.8286 127.446 30.8286 127.371 30.8286C127.221 30.8286 126.996 30.8286 126.808 30.8286C126.696 30.8286 126.546 30.8286 126.433 30.8286H6.22786V29.5223C6.22786 27.7308 6.22786 26.0139 6.22786 24.2598C6.22786 19.9303 6.19034 15.8248 6.26538 11.682C6.3029 8.69619 8.55393 6.45683 11.7054 6.23289C12.1556 6.19557 12.5683 6.19557 12.981 6.19557H123.169C123.357 6.19557 123.582 6.19557 123.769 6.19557C127.484 6.30754 129.735 8.50958 129.81 12.0926C129.81 15.5636 129.81 19.0346 129.81 22.431Z" fill="white"/>
<path d="M68.057 49.1914C67.9819 49.1914 67.9069 49.1914 67.8694 49.1914C44.8338 49.3034 26.6755 67.4049 26.5254 90.433C26.863 113.237 45.2465 131.6 67.6068 131.6C67.7944 131.6 67.9819 131.6 68.1695 131.6C91.1676 131.264 109.664 112.677 109.401 90.1718C109.176 67.5169 90.6423 49.1914 68.057 49.1914ZM102.91 92.747C102.798 100.286 99.2713 108.423 93.5312 114.506C86.9657 121.448 77.999 125.33 68.2446 125.442C68.132 125.442 68.0195 125.442 67.8694 125.442C58.415 125.442 49.5985 121.784 43.033 115.178C36.9177 109.02 33.2785 100.846 32.9784 92.747L32.9033 90.3957L34.9668 91.59C35.3795 91.8139 35.7546 92.0379 36.1673 92.2991C36.9927 92.7843 37.8181 93.2695 38.6435 93.7174C45.4716 97.5243 52.1122 97.5617 58.9403 93.7174C59.2404 93.5681 59.5406 93.3815 59.8407 93.1949C61.7541 92.0752 63.7425 90.9555 66.2937 90.7316C69.7828 90.3957 72.7841 91.0675 75.4104 92.747C79.2371 95.2103 82.9513 96.442 86.7406 96.4793C90.7174 96.5166 94.2065 95.6209 97.433 93.6801C98.2208 93.1949 99.0087 92.747 99.8341 92.2991C100.209 92.0752 100.622 91.8513 100.997 91.6273L102.986 90.4703L102.91 92.747ZM102.423 84.0135L101.597 84.4614C100.734 84.9092 99.8716 85.3571 99.0462 85.8423C97.2079 86.85 95.2945 87.8577 93.3436 88.7908C91.2426 89.7985 89.1417 90.321 87.0782 90.321C84.7146 90.321 82.3886 89.6492 80.1 88.3429C77.3988 86.7754 74.6225 85.1332 71.4335 84.6853C66.0686 83.9389 61.6415 84.76 57.8148 87.1859C54.9259 89.0148 51.3993 90.8062 47.2349 90.0971C45.5091 89.7985 43.8208 89.276 42.2451 88.5669C40.3693 87.7085 38.4934 86.7007 36.6926 85.7303C35.9047 85.3198 35.1544 84.9092 34.3665 84.4987L33.5411 84.0508L33.6912 83.1178C35.6796 69.7562 49.3359 55.387 67.9819 55.387C68.0195 55.387 68.0195 55.387 68.057 55.387C79.2746 55.4243 87.0782 60.3509 91.6553 64.4564C97.3955 69.6443 101.26 76.437 102.273 83.1178L102.423 84.0135Z" fill="white"/>
<path d="M94.3941 15.4143C94.3566 15.4143 94.3191 15.4143 94.3191 15.4143H93.006C92.5558 15.4143 92.068 15.4143 91.6178 15.4143C91.1676 15.4143 90.7174 15.4143 90.2672 15.4143C89.7045 15.4143 89.1417 15.4143 88.6165 15.4516C86.8907 15.5263 85.6526 16.7579 85.6151 18.4374C85.5776 20.2289 86.8156 21.4979 88.579 21.5352C91.5803 21.6099 94.6192 21.6099 97.6206 21.5352C99.3839 21.4979 100.659 20.1543 100.622 18.4748C100.584 16.7579 99.2713 15.5263 97.4705 15.4516C96.42 15.4143 95.4071 15.4143 94.3941 15.4143Z" fill="white"/>
<path d="M109.175 18.4375C109.137 20.1543 110.3 21.4233 112.026 21.5353C113.039 21.6099 114.052 21.5726 115.14 21.5726C115.177 21.5726 115.215 21.5726 115.29 21.5726H116.603C117.128 21.5726 117.616 21.5726 118.141 21.5726C119.267 21.5726 120.355 21.6099 121.443 21.5353C123.019 21.4233 124.257 20.117 124.257 18.5121C124.219 16.8699 122.981 15.5636 121.405 15.5263C119.867 15.489 118.329 15.4517 116.716 15.4517C115.177 15.4517 113.639 15.489 112.064 15.5263C110.45 15.5263 109.212 16.7953 109.175 18.4375Z" fill="white"/>
</g>
<defs>
<clipPath id="clip0_530_2352">
<rect width="136" height="150" fill="white"/>
</clipPath>
</defs>
</svg>
