<svg width="149" height="145" viewBox="0 0 149 145" fill="none" xmlns="http://www.w3.org/2000/svg">
<g clip-path="url(#clip0_528_2339)">
<path d="M0 21.8765C1.82241 19.6045 3.09809 19.5313 5.21208 21.6566C13.7045 30.1946 22.2334 38.7327 30.7258 47.3073C32.9491 49.5793 35.3911 50.6419 38.5621 49.9823C40.3116 49.6159 42.134 49.506 43.8836 49.2128C45.1592 48.993 46.1798 49.3594 47.0546 50.2389C48.6218 51.8145 50.2255 53.4269 51.7928 55.0026C52.8863 56.1019 53.1414 57.2745 52.376 58.7036C52.1937 59.1067 52.3395 59.9495 52.6676 60.2793C54.1984 61.9649 55.875 63.5406 57.4423 65.1896C58.317 66.1423 58.5357 67.2416 57.8068 68.4142C57.1507 69.4403 56.1666 69.8067 55.0367 69.4769C54.4535 69.3303 53.9068 68.9272 53.4694 68.4875C51.8293 66.9118 50.2255 65.2629 48.6218 63.6505C47.2368 62.2581 46.6536 60.6091 46.8723 58.5937C46.9088 58.0074 46.6172 57.3111 46.2527 56.8348C44.977 54.9293 43.3004 54.2697 40.9313 54.856C39.036 55.2957 36.9949 55.369 35.0267 55.2591C32.2566 55.1125 29.9239 53.7933 27.9922 51.8512C19.0259 42.9101 10.0961 33.969 1.20279 24.9912C0.728963 24.5148 0.40093 23.8919 0 23.3422C0 22.8658 0 22.3528 0 21.8765Z" fill="white"/>
<path d="M134.858 10.0405C140.362 10.0772 144.226 10.9933 147.542 13.595C149.401 15.0607 149.474 16.5265 147.798 18.2854C147.652 18.432 147.542 18.5786 147.397 18.6885C106.793 59.5098 66.1901 100.295 25.5869 141.152C22.343 144.414 18.6253 145.843 14.1057 144.45C7.32636 142.362 4.70209 133.64 9.14877 128.107C9.73194 127.374 10.3516 126.715 11.0076 126.055C23.3271 113.67 35.6466 101.321 47.9296 88.8983C51.0277 85.7469 54.4538 84.4643 58.7182 86.0034C59.0827 86.15 59.7388 85.9301 60.0668 85.6369C61.4154 84.3911 62.6546 82.9986 64.0032 81.7527C64.6957 81.0931 64.6228 80.6167 64.0761 79.9205C60.978 75.8897 61.1238 71.2359 64.7322 67.6448C79.275 53.0239 93.7814 38.3663 108.506 23.9286C114.083 18.4686 120.461 13.9614 128.006 11.5796C130.63 10.7001 133.437 10.3337 134.858 10.0405ZM142.257 16.4166C138.175 14.7309 134.312 15.0607 130.412 16.2334C123.377 18.3587 117.436 22.4628 112.261 27.5197C97.572 41.9207 83.1385 56.5417 68.5957 71.0893C66.6639 72.9948 66.6639 74.7537 68.4134 77.0623C70.4545 79.7739 70.3452 82.6688 68.0125 85.0873C66.5546 86.5897 65.0967 88.0555 63.6023 89.5212C61.8163 91.2801 59.7388 91.9031 57.3332 91.0236C55.1828 90.2174 53.4697 90.7305 51.8295 92.3794C39.3643 104.948 26.8626 117.481 14.3973 130.013C13.9964 130.416 13.559 130.856 13.231 131.295C11.0076 134.263 12.4291 138.477 15.9646 139.54C18.3701 140.236 20.1561 139.21 21.7963 137.561C61.5976 97.5462 101.399 57.5311 141.237 17.5159C141.528 17.1861 141.82 16.8563 142.257 16.4166Z" fill="white"/>
<path d="M134.457 145C130.813 144.927 128.261 143.791 126.147 141.665C111.495 126.934 96.843 112.24 82.2273 97.4728C81.7534 96.9964 81.1703 96.2269 81.2067 95.6406C81.2432 94.7611 81.6076 93.6252 82.2273 93.1854C82.8469 92.7457 84.0132 92.8556 84.888 93.0755C85.4711 93.2221 85.945 93.8817 86.4188 94.358C100.743 108.759 115.103 123.16 129.428 137.598C131.031 139.21 132.817 140.2 135.15 139.54C138.722 138.551 140.18 134.373 137.993 131.368C137.592 130.819 137.118 130.342 136.608 129.866C122.247 115.428 107.887 100.991 93.4897 86.5162C91.7038 84.7207 91.4122 83.2183 92.5785 81.9724C93.7813 80.6899 95.3486 80.983 97.171 82.8519C111.641 97.3995 126.111 111.947 140.581 126.495C144.444 130.379 145.246 135.216 142.768 139.687C141.055 142.875 137.483 144.963 134.457 145Z" fill="white"/>
<path d="M55.182 37.2667C54.9633 38.8058 54.6353 40.8578 54.4531 42.9465C54.4166 43.6061 54.7446 44.3756 55.1091 44.9619C55.4372 45.5116 55.9839 46.0246 56.5306 46.3911C57.0773 46.7208 57.7698 47.0873 58.3895 47.014C60.2483 46.8674 61.852 47.3804 63.1642 48.663C64.9866 50.4219 66.7725 52.2174 68.522 54.0496C69.7613 55.3322 69.8706 56.8712 68.8501 57.9705C67.7931 59.1065 66.1894 59.0332 64.8772 57.714C63.2735 56.1383 61.7062 54.5626 60.139 52.9503C59.5558 52.364 59.082 52.0709 58.2801 52.6205C57.1138 53.4267 55.9474 53.1335 54.9998 52.2174C53.2503 50.5318 51.5372 48.8095 49.8606 47.0506C49.0223 46.1712 48.8036 45.1452 49.0223 43.9359C49.3503 42.0671 49.4961 40.1616 49.8606 38.2927C50.3709 35.3979 49.3868 33.0893 47.3457 31.0739C38.7804 22.5359 30.2515 13.9245 21.7226 5.34986C21.3217 4.94678 20.8843 4.50705 20.5563 4.03068C19.7909 2.93137 19.9002 1.7954 20.775 0.842663C21.6862 -0.110079 22.7796 -0.293299 23.946 0.43958C24.3833 0.696087 24.7843 1.09917 25.1488 1.46561C33.8234 10.1869 42.4981 18.9081 51.1727 27.5927C53.6876 30.1212 55.1456 33.0893 55.182 37.2667Z" fill="white"/>
<path d="M31.637 41.2976C30.6894 40.7113 29.924 40.4181 29.4137 39.9051C22.1605 32.6863 14.9438 25.3941 7.72706 18.1386C6.45138 16.8561 6.37848 15.3537 7.43548 14.2544C8.52892 13.0818 10.0597 13.155 11.4083 14.5109C18.5886 21.6931 25.8053 28.9486 32.9856 36.1674C33.8604 37.0469 34.48 38.1462 33.7875 39.2822C33.3137 40.0883 32.4025 40.6013 31.637 41.2976Z" fill="white"/>
<path d="M40.7487 31.1474C40.7123 33.5659 38.6347 34.8118 36.9946 33.8957C36.4478 33.6025 36.0105 33.1261 35.5731 32.6864C28.6479 25.7607 21.7592 18.835 14.8705 11.9093C14.5789 11.6161 14.2509 11.2864 13.9958 10.9566C13.121 9.8206 13.1939 8.46477 14.1416 7.51203C15.0892 6.55929 16.4014 6.486 17.5677 7.32881C17.9322 7.58532 18.2238 7.91511 18.5153 8.20826C25.4405 15.1706 32.3656 22.0963 39.2543 29.0953C39.9469 29.7915 40.4207 30.671 40.7487 31.1474Z" fill="white"/>
</g>
<defs>
<clipPath id="clip0_528_2339">
<rect width="149" height="145" fill="white"/>
</clipPath>
</defs>
</svg>
