<svg width="181" height="135" viewBox="0 0 181 135" fill="none" xmlns="http://www.w3.org/2000/svg">
<g clip-path="url(#clip0_530_2350)">
<path d="M36.0477 9.94882C31.8884 17.4439 28.9813 24.3589 27.1476 31.0063C26.1636 34.3969 25.3586 37.9214 24.5983 41.3566C24.2405 42.9181 23.8827 44.5242 23.4802 46.0856L23.3013 46.7548H22.5857C22.5409 46.7548 22.4515 46.7548 22.362 46.7548C22.0937 46.7548 21.7806 46.7548 21.4676 46.7548L17.2635 46.4872C12.9699 46.2195 8.54218 45.9518 4.2039 45.6395C2.10185 45.5057 0.804843 46.1303 -0.0449219 47.7809V54.9637C-0.000197388 55.0975 -0.000197388 55.276 0.0445271 55.4098C0.133976 55.8113 0.223425 56.2575 0.26815 56.7482C0.760119 64.7786 2.0124 71.9168 4.11446 78.5642C11.8071 102.745 27.3712 119.475 50.2701 128.397C59.707 132.056 70.262 134.152 82.5612 134.822C97.6334 135.625 111.006 134.331 123.439 130.806C141.419 125.765 155.775 115.638 166.196 100.692C176.08 86.5053 180.91 69.5523 180.955 48.8517C180.955 47.8702 180.687 47.0225 180.105 46.4872C179.524 45.9518 178.719 45.6395 177.69 45.6841C173.486 45.7733 169.327 46.041 165.436 46.2641C163.781 46.3533 162.126 46.5318 160.471 46.7102C159.711 46.7995 158.951 46.8441 158.19 46.9333L157.385 47.0225L157.206 46.2195C157.162 46.041 157.162 45.9072 157.117 45.818C157.072 45.5949 157.027 45.4164 157.027 45.2826C155.238 33.1032 151.169 21.236 144.862 9.94882C143.7 7.852 142.492 7.31664 140.524 7.98584C132.026 10.9303 124.513 14.4994 117.58 18.8715C116.507 19.5407 115.434 20.2545 114.36 20.9683C113.868 21.3252 113.332 21.6375 112.795 21.9944L112.079 22.4406L111.587 21.7714C111.409 21.5483 111.274 21.3252 111.095 21.1468C110.782 20.7453 110.469 20.3437 110.201 19.9422C105.371 13.2948 99.6012 7.00434 92.9373 1.29383C91.0589 -0.312247 89.7171 -0.401473 88.2412 0.981541C83.9924 4.99674 80.1908 8.61042 76.6128 12.4472C74.7791 14.4102 73.0796 16.5962 71.4248 18.7377C70.6645 19.7191 69.9042 20.7006 69.0991 21.6821L68.6072 22.3067L67.9363 21.8606C67.7574 21.7267 67.5785 21.6375 67.3996 21.5483C66.9971 21.3252 66.6393 21.0575 66.2368 20.7899C58.6783 15.6593 50.136 11.3765 40.8333 8.11968C38.4181 7.22741 37.3447 7.62893 36.0477 9.94882ZM78.7596 128.397C57.8286 127.193 39.8046 119.43 26.745 106.001C13.4171 92.3051 6.26123 73.7013 6.08233 52.1977V51.2162L7.06627 51.3054C8.72108 51.4392 10.3312 51.5731 11.9412 51.7069C15.5639 52.0192 19.0077 52.2869 22.4515 52.733C33.1854 54.116 42.5328 57.1944 51.0752 62.0572C52.9536 63.1279 53.6692 64.4217 53.535 66.6078C52.6852 81.8209 56.3079 96.1418 64.2689 109.214C67.8021 115.013 72.2299 120.411 77.4179 125.23C77.731 125.497 78.044 125.765 78.4913 126.122C78.7596 126.3 79.028 126.524 79.341 126.791L81.5325 128.531L78.7596 128.397ZM158.503 52.7776C161.992 52.3315 165.436 52.0192 169.103 51.7069C170.758 51.5731 172.413 51.4392 174.112 51.2608L175.096 51.1716L175.051 52.1977C174.515 71.0691 169.729 86.3715 160.337 98.9971C147.322 116.53 128.583 126.167 103.179 128.531L100.988 128.754L102.419 127.103C103.582 125.72 104.834 124.337 105.997 123.044C108.546 120.144 111.23 117.199 113.511 114.032C123.618 100.246 128.359 84.4977 127.509 67.1431C127.375 64.5109 128.135 63.1279 130.327 61.8788C138.735 57.1944 148.217 54.1607 158.503 52.7776ZM115.97 26.9465C123.305 21.7268 131.132 17.6223 139.898 14.3655L140.614 14.0979L140.971 14.7671C146.607 25.2958 150.05 35.9138 151.482 47.2456L151.571 48.0486L150.766 48.2271C142.224 50.0116 134.665 52.7776 127.554 56.7036L126.481 57.2836L126.257 56.079C124.289 46.041 120.845 36.8953 115.657 28.1065L115.255 27.3926L115.97 26.9465ZM68.7861 33.5493C73.7952 24.1805 80.5039 15.7932 89.1804 7.94122C89.3146 7.80738 89.4935 7.67354 89.6724 7.5397C89.7618 7.49509 89.8513 7.40586 89.9408 7.31664L90.5222 6.82589L91.1036 7.31664C96.1574 11.7334 100.719 16.5962 104.61 21.7714C113.153 33.0585 118.341 44.3457 120.443 56.3021C125.497 85.3008 115.926 109.258 92.0428 127.46C91.5061 127.862 91.0141 128.085 90.5222 128.085C90.0302 128.085 89.5382 127.862 88.9568 127.46C72.9007 115.549 63.1955 100.202 60.1095 81.8655C57.426 65.5817 60.3331 49.2978 68.7861 33.5493ZM40.0282 14.8117L40.386 14.1425L41.1016 14.4102C49.6887 17.5331 57.5155 21.6375 65.0292 26.9465L65.7001 27.4373L65.2976 28.1511C60.0201 37.3414 56.5763 46.3979 54.7873 55.9452L54.5637 57.0605L53.535 56.6144C52.2827 56.079 51.0752 55.5437 49.8676 55.0083C47.1841 53.8038 44.6348 52.6884 42.0408 51.7069C39.4021 50.77 36.7633 50.0116 33.9457 49.2086C32.6934 48.8517 31.4411 48.4948 30.1441 48.1379L29.4285 47.9148L29.518 47.1564C30.9491 36.003 34.3929 25.4743 40.0282 14.8117Z" fill="white"/>
</g>
<defs>
<clipPath id="clip0_530_2350">
<rect width="181" height="135" fill="white"/>
</clipPath>
</defs>
</svg>
