<svg width="57" height="50" viewBox="0 0 57 50" fill="none" xmlns="http://www.w3.org/2000/svg">
<path d="M40.6948 41.5967C40.6948 41.874 40.6948 42.1025 40.6948 42.3146C40.6948 44.452 40.6948 46.5895 40.6948 48.7269C40.6948 49.5101 40.3126 49.9833 39.7074 49.9996C39.0863 50.0159 38.6723 49.5101 38.6723 48.7106C38.6723 46.5405 38.6564 44.3541 38.6882 42.1841C38.6882 41.5967 38.5768 41.2866 37.9875 41.0093C35.981 40.1119 34.8344 37.8602 35.3918 35.6738C36.4269 31.4805 36.4747 27.2219 36.3791 22.947C36.3473 21.5438 35.5192 20.5974 34.3408 20.0264C33.3853 19.5532 32.3502 19.2105 31.331 18.8679C28.5123 17.9378 25.6618 17.1383 22.7157 16.7631C22.0309 16.6815 21.394 16.7304 20.741 17.0078C17.8109 18.2479 14.8489 19.439 11.9028 20.6464C10.7721 21.1032 10.1829 20.6953 10.1829 19.439C10.1829 13.4345 10.1829 7.43007 10.1829 1.42563C10.1829 0.185583 10.7881 -0.238644 11.9028 0.218216C14.5941 1.31142 17.3013 2.35567 19.9607 3.54677C21.2984 4.15047 22.5883 4.24837 23.9578 3.93836C27.6205 3.10622 31.2673 2.25777 34.93 1.40931C38.0512 0.675076 41.1725 -0.0754795 44.3893 0.00610257C48.0201 0.104001 51.5395 0.707709 54.7563 2.56778C55.3774 2.92674 55.9666 3.35097 56.4921 3.84046C56.7469 4.08521 56.9698 4.52575 56.9698 4.88471C57.0017 8.50696 57.0176 12.1292 56.9698 15.7514C56.9698 16.1757 56.6673 16.6815 56.3647 16.9915C54.8996 18.5416 53.0842 19.5369 51.1255 20.2548C50.6796 20.4179 50.2178 20.5648 49.7719 20.6953C48.0838 21.2174 47.208 22.3922 47.1761 24.187C47.1602 25.525 47.1761 26.8792 47.1602 28.2172C47.1283 31.3826 46.6665 34.499 45.8544 37.5502C45.1696 40.0792 43.7045 41.3519 41.1725 41.564C41.0132 41.564 40.9018 41.5803 40.6948 41.5967ZM22.4131 14.593C22.5724 14.6256 22.6839 14.6582 22.7953 14.6746C25.9803 15.0498 29.0697 15.9146 32.0954 16.9425C33.3853 17.3831 34.6911 17.8726 35.8695 18.5579C37.4302 19.4879 38.3379 20.9727 38.3697 22.8654C38.4494 27.2872 38.4334 31.6926 37.3506 36.0164C36.9206 37.746 38.1149 39.2797 39.8507 39.4429C40.3444 39.4918 40.854 39.4918 41.3317 39.4266C42.5102 39.296 43.402 38.6434 43.6727 37.4849C44.1663 35.2985 44.66 33.0795 44.883 30.8441C45.1059 28.6741 45.0422 26.455 45.0741 24.2686C45.1059 21.4622 46.571 19.4553 49.1667 18.6558C49.5648 18.5416 49.963 18.3784 50.3611 18.2805C50.7592 18.1826 50.8866 17.9705 50.8707 17.5463C50.8547 12.9124 50.8547 8.26221 50.8707 3.62835C50.8707 3.1878 50.7114 3.04096 50.3292 2.92674C48.4023 2.37198 46.4436 2.11092 44.453 2.06197C41.2999 1.96407 38.2742 2.71463 35.2326 3.43255C31.9839 4.19942 28.7512 4.99893 25.5025 5.73317C24.4834 5.9616 23.4482 6.04318 22.3972 6.20634C22.4131 9.01277 22.4131 11.7702 22.4131 14.593ZM12.2531 18.15C12.3805 18.1336 12.4124 18.15 12.4442 18.1336C14.9604 17.1057 17.4924 16.0615 20.0244 15.0498C20.3748 14.903 20.3748 14.6746 20.3748 14.3809C20.3748 11.7376 20.3588 9.09435 20.3748 6.45109C20.3748 6.04318 20.2633 5.84738 19.8811 5.68422C17.4924 4.72155 15.1355 3.74256 12.7468 2.77989C12.5876 2.71463 12.4283 2.682 12.2372 2.61673C12.2531 7.83799 12.2531 12.9777 12.2531 18.15ZM52.9409 17.1383C53.6097 16.5999 54.1671 16.192 54.6926 15.7188C54.8359 15.5883 54.9474 15.3109 54.9474 15.0825C54.9633 11.9008 54.9633 8.73539 54.9474 5.55369C54.9474 5.39052 54.9156 5.14578 54.8041 5.06419C54.2308 4.65628 53.6097 4.29732 52.9409 3.87309C52.9409 8.34379 52.9409 12.6513 52.9409 17.1383Z" fill="#087868"/>
<path d="M5.78766 12.635C5.02327 12.3576 4.32258 12.1781 3.70152 11.8518C2.93713 11.4765 2.25236 11.297 1.47205 11.8192C0.994309 12.1292 0.405094 11.9007 0.150298 11.4112C-0.104498 10.9381 -0.00894948 10.3996 0.468793 10.0733C1.39243 9.40432 2.41161 9.17589 3.51042 9.53485C3.92446 9.6817 4.32258 9.84486 4.70477 10.057C5.37361 10.4159 5.97875 10.4975 6.64759 10.0243C7.12533 9.69802 7.69863 9.89381 7.98527 10.3507C8.27192 10.8075 8.19229 11.4439 7.69863 11.7376C7.09348 12.0965 6.42465 12.3413 5.78766 12.635Z" fill="#087868"/>
<path d="M5.74046 6.3695C4.97608 6.0758 4.27539 5.88 3.62247 5.55367C2.88993 5.19471 2.23702 5.06418 1.48856 5.53736C0.99489 5.86369 0.421599 5.63526 0.150879 5.16208C-0.135767 4.67259 -0.00836893 4.11783 0.485298 3.77518C1.40893 3.12253 2.41219 2.91041 3.47915 3.26937C3.92504 3.41622 4.37094 3.62834 4.78498 3.84045C5.40604 4.16678 5.96341 4.21573 6.56855 3.7915C7.07814 3.43254 7.66736 3.61202 7.96993 4.10151C8.25657 4.59101 8.16103 5.22735 7.61958 5.53736C7.06222 5.88 6.39338 6.09212 5.74046 6.3695Z" fill="#087868"/>
<path d="M2.47542 15.4577C3.27166 15.7514 4.0042 15.9799 4.68896 16.3062C5.3578 16.6325 5.96294 16.7631 6.63178 16.2736C7.10952 15.9309 7.68281 16.1267 7.98538 16.5999C8.27203 17.0567 8.17648 17.6605 7.71466 18.0031C6.82288 18.6884 5.83554 18.9331 4.75266 18.5579C4.35454 18.4273 3.97235 18.2478 3.60608 18.052C2.92131 17.6768 2.2684 17.5626 1.53586 18.0357C1.02627 18.3784 0.421127 18.1499 0.150407 17.6605C-0.120314 17.171 -0.0088408 16.5673 0.516676 16.2899C1.12182 15.9635 1.80658 15.7351 2.47542 15.4577Z" fill="#087868"/>
</svg>
