<svg width="51" height="51" viewBox="0 0 51 51" fill="none" xmlns="http://www.w3.org/2000/svg">
<path d="M34.8284 0.481013C32.0518 0.974684 30.1007 2.62025 29.0501 5.37975C28.3748 7.13924 28.0996 9.11392 28.1747 11.5823C28.1872 11.9241 28.1371 12.3544 27.6494 12.6835C27.3992 12.8608 27.2741 13.1392 27.2867 13.519C27.2867 13.6962 27.3117 13.8861 27.3242 14.0759C27.3367 14.2025 27.3492 14.3291 27.3617 14.4557C27.4492 15.7595 27.5368 17.0633 27.6243 18.3797C27.7994 21.0759 27.9871 23.8608 28.1747 26.6076C28.2122 27.2152 28.5374 27.557 29.1502 27.6456C29.2252 27.6582 29.3003 27.6709 29.3628 27.6835C29.3878 27.6835 29.4254 27.6962 29.4504 27.6962L29.8381 27.7722L29.8631 28.1646C29.8881 28.519 29.9131 28.8608 29.9256 29.2025C29.9757 29.9367 30.0257 30.6962 30.0507 31.443C30.0882 32.9747 30.1132 34.5316 30.1383 36.038C30.1758 38.1899 30.2133 40.4177 30.2758 42.5949C30.3759 46.0506 32.0018 48.5823 35.1036 50.1392C35.6664 50.4177 36.2917 50.5823 36.9671 50.7595C37.2548 50.8354 37.5424 50.9114 37.8301 51H39.5936C39.7437 50.962 39.8812 50.9367 40.0188 50.9114C40.3565 50.8354 40.6817 50.7721 40.9819 50.6709C42.7579 50.1013 44.1712 49.2025 45.1967 47.9873C46.2098 46.7722 46.8602 45.2278 47.1103 43.3671C47.3354 41.7468 47.4605 40.076 47.5856 38.4684C47.6356 37.8987 47.6731 37.3038 47.7232 36.7089C47.8857 34.7215 48.0608 32.6962 48.2109 30.7342C48.2735 29.8861 48.3485 29.0253 48.411 28.1772L48.4361 27.8228L48.7737 27.7342C49.4366 27.557 49.7243 27.4304 49.8744 27.2532C50.0119 27.0886 50.087 26.7848 50.1245 26.1392C50.2246 24.6835 50.3246 23.2278 50.4247 21.7722C50.5873 19.3544 50.7499 16.9241 50.925 14.5063C50.9375 14.3671 50.9625 14.2405 50.9875 14.1266C50.9875 14.1013 51 14.0759 51 14.0506V13.2152C50.8249 12.8734 50.6623 12.6329 50.3621 12.5063C50.0244 12.3544 49.7993 11.9873 49.7118 11.6709C49.5992 11.2405 49.5117 10.8101 49.4116 10.3924C49.2615 9.6962 49.1114 9.02532 48.8988 8.37975C47.9983 5.62025 46.4224 3.5443 44.2087 2.17722C42.1825 0.898734 39.8812 0.253165 37.4299 0.253165C36.5794 0.253165 35.7039 0.329114 34.8284 0.481013ZM46.4599 28.2152C46.4349 28.4937 46.4099 28.7722 46.3849 29.0506C46.3349 29.6582 46.2723 30.2405 46.2348 30.8228C46.1598 31.7342 46.0972 32.6709 46.0222 33.5696C45.8846 35.481 45.7345 37.443 45.5469 39.3797C45.5219 39.6203 45.4969 39.8608 45.4844 40.1139C45.3468 41.5823 45.2092 43.1139 44.809 44.5443C44.0711 47.1392 41.5572 48.9494 38.7056 48.9494C37.3173 48.9494 36.0291 48.519 34.966 47.7089C33.1775 46.3797 32.302 44.6076 32.2645 42.3165C32.2019 39.0759 32.1144 35.7722 32.0143 32.5823C31.9768 31.2405 31.9393 29.8861 31.9018 28.5443C31.9018 28.4684 31.9018 28.4051 31.9018 28.3165C31.9018 28.2785 31.9018 28.2278 31.9018 28.1899V27.6835H46.5225L46.4599 28.2152ZM48.4861 21.6203L48.261 25.1139L48.2234 25.5823H30.1258L30.0882 25.1139L29.9006 22.4177L29.8506 21.6329L29.8131 21.0886H48.5111L48.4861 21.6203ZM48.9739 14.4684L48.9363 15.0127L48.7988 17.1013L48.6987 18.5316L48.6737 18.9747L48.2234 19C48.1609 19 48.0984 19.0127 48.0358 19.0127C47.8983 19.0253 47.7732 19.0253 47.6356 19.0253H41.0569C37.7676 19.0253 34.2406 19.0253 30.7261 19.038H30.7136C29.9757 19.038 29.613 18.6709 29.5879 17.9367C29.5629 17.2658 29.5254 16.5949 29.4754 15.8861C29.4504 15.5949 29.4379 15.3038 29.4129 15.0127L29.3753 14.4684H48.9739ZM37.5174 2.27848C40.0438 2.27848 42.3076 3.07595 44.2462 4.65823C45.8971 6 46.9477 7.91139 47.5481 10.6582C47.5981 10.9114 47.6481 11.1646 47.6856 11.4177C47.7106 11.5316 47.7232 11.6582 47.7482 11.7848L47.8607 12.3797H30.2258L30.2008 11.8987C30.1007 9.65823 30.1633 7.29114 31.364 5.13924C32.1394 3.74684 33.29 2.86076 34.7033 2.56962C35.6664 2.37975 36.6169 2.27848 37.5174 2.27848Z" fill="#087868"/>
<path d="M16.1716 0.481013C18.9482 0.974684 20.8993 2.62025 21.9499 5.37975C22.6252 7.13924 22.9004 9.11392 22.8253 11.5823C22.8128 11.9241 22.8629 12.3544 23.3506 12.6835C23.6008 12.8608 23.7259 13.1392 23.7133 13.519C23.7133 13.6962 23.6883 13.8861 23.6758 14.0759C23.6633 14.2025 23.6508 14.3291 23.6383 14.4557C23.5508 15.7595 23.4632 17.0633 23.3757 18.3797C23.2006 21.0759 23.0129 23.8608 22.8253 26.6076C22.7878 27.2152 22.4626 27.557 21.8498 27.6456C21.7748 27.6582 21.6997 27.6709 21.6372 27.6835C21.6122 27.6835 21.5746 27.6962 21.5496 27.6962L21.1619 27.7722L21.1369 28.1646C21.1119 28.519 21.0869 28.8608 21.0744 29.2025C21.0243 29.9367 20.9743 30.6962 20.9493 31.443C20.9118 32.9747 20.8868 34.5316 20.8617 36.038C20.8242 38.1899 20.7867 40.4177 20.7242 42.5949C20.6241 46.0506 18.9982 48.5823 15.8964 50.1392C15.3336 50.4177 14.7083 50.5823 14.0329 50.7595C13.7452 50.8354 13.4576 50.9114 13.1699 51H11.4064C11.2563 50.962 11.1188 50.9367 10.9812 50.9114C10.6435 50.8354 10.3183 50.7721 10.0181 50.6709C8.24214 50.1013 6.82884 49.2025 5.80327 47.9873C4.79019 46.7722 4.13983 45.2278 3.88969 43.3671C3.66456 41.7468 3.53949 40.076 3.41442 38.4684C3.36439 37.8987 3.32687 37.3038 3.27684 36.7089C3.11425 34.7215 2.93915 32.6962 2.78907 30.7342C2.72653 29.8861 2.65149 29.0253 2.58896 28.1772L2.56394 27.8228L2.22625 27.7342C1.56338 27.557 1.27572 27.4304 1.12563 27.2532C0.988056 27.0886 0.913014 26.7848 0.875493 26.1392C0.775436 24.6835 0.675381 23.2278 0.575324 21.7722C0.412733 19.3544 0.250142 16.9241 0.075043 14.5063C0.0625359 14.3671 0.0375219 14.2405 0.0125078 14.1266C0.0125078 14.1013 0 14.0759 0 14.0506V13.2152C0.175099 12.8734 0.337691 12.6329 0.63786 12.5063C0.97555 12.3544 1.20068 11.9873 1.28823 11.6709C1.40079 11.2405 1.48834 10.8101 1.58839 10.3924C1.73848 9.6962 1.88856 9.02532 2.10118 8.37975C3.00169 5.62025 4.57758 3.5443 6.79132 2.17722C8.81746 0.898734 11.1188 0.253165 13.5701 0.253165C14.4206 0.253165 15.2961 0.329114 16.1716 0.481013ZM4.54005 28.2152C4.56507 28.4937 4.59008 28.7722 4.6151 29.0506C4.66512 29.6582 4.72766 30.2405 4.76518 30.8228C4.84022 31.7342 4.90276 32.6709 4.9778 33.5696C5.11538 35.481 5.26546 37.443 5.45307 39.3797C5.47808 39.6203 5.5031 39.8608 5.5156 40.1139C5.65318 41.5823 5.79076 43.1139 6.19098 44.5443C6.9289 47.1392 9.44281 48.9494 12.2944 48.9494C13.6827 48.9494 14.9709 48.519 16.034 47.7089C17.8225 46.3797 18.698 44.6076 18.7355 42.3165C18.7981 39.0759 18.8856 35.7722 18.9857 32.5823C19.0232 31.2405 19.0607 29.8861 19.0982 28.5443C19.0982 28.4684 19.0982 28.4051 19.0982 28.3165C19.0982 28.2785 19.0982 28.2278 19.0982 28.1899V27.6835H4.47752L4.54005 28.2152ZM2.51392 21.6203L2.73904 25.1139L2.77656 25.5823H20.8742L20.9118 25.1139L21.0994 22.4177L21.1494 21.6329L21.1869 21.0886H2.4889L2.51392 21.6203ZM2.02614 14.4684L2.06366 15.0127L2.20124 17.1013L2.30129 18.5316L2.32631 18.9747L2.77656 19C2.8391 19 2.90163 19.0127 2.96417 19.0127C3.10175 19.0253 3.22681 19.0253 3.36439 19.0253H9.9431C13.2324 19.0253 16.7594 19.0253 20.2739 19.038H20.2864C21.0243 19.038 21.387 18.6709 21.412 17.9367C21.4371 17.2658 21.4746 16.5949 21.5246 15.8861C21.5496 15.5949 21.5621 15.3038 21.5871 15.0127L21.6247 14.4684H2.02614ZM13.4826 2.27848C10.9562 2.27848 8.69239 3.07595 6.7538 4.65823C5.10287 6 4.05228 7.91139 3.45194 10.6582C3.40192 10.9114 3.35189 11.1646 3.31436 11.4177C3.28935 11.5316 3.27684 11.6582 3.25183 11.7848L3.13927 12.3797H20.7742L20.7992 11.8987C20.8993 9.65823 20.8367 7.29114 19.636 5.13924C18.8606 3.74684 17.71 2.86076 16.2967 2.56962C15.3336 2.37975 14.3831 2.27848 13.4826 2.27848Z" fill="#087868"/>
</svg>
