<svg width="53" height="50" viewBox="0 0 53 50" fill="none" xmlns="http://www.w3.org/2000/svg">
<g clip-path="url(#clip0_527_1459)">
<path d="M1.68611 43.8553C10.2993 43.8416 19.0109 43.8416 26.4016 43.8416H33.6519H40.9022H42.0684C43.0941 43.8416 43.5016 43.4722 43.5437 42.4869C43.6561 40.1197 45.4687 38.1082 47.7871 37.8071C48.5459 37.7114 49.2906 37.6977 49.9931 37.6977C50.1898 37.6977 50.3865 37.6977 50.5832 37.6977C50.78 37.6977 50.9767 37.6977 51.1734 37.6977C51.342 37.6977 51.5106 37.6977 51.6652 37.6977C52.1429 37.684 52.5082 37.5472 52.733 37.2872C52.9578 37.0272 53.0422 36.644 52.9719 36.1925C52.8595 35.4399 52.7471 34.6736 52.6347 33.9347C52.5785 33.5926 52.5363 33.2368 52.4801 32.8947C52.2975 31.6495 52.1148 30.418 51.9321 29.1728C51.4966 26.2718 51.061 23.2888 50.6394 20.3331C50.5692 19.7995 50.4849 19.2521 50.4006 18.7185C50.1196 16.8849 49.8385 14.9828 49.8104 13.0671C49.7823 11.5482 49.1922 10.043 48.1243 8.8252C47.0705 7.59367 45.6373 6.77266 44.1058 6.4853C42.9396 6.26636 41.675 6.26636 40.4666 6.26636C40.1715 6.26636 39.8765 6.26636 39.5814 6.26636C36.3637 6.22531 34.242 4.26855 34.0594 1.14868C34.0172 0.491867 33.5395 0.0129395 32.9072 0.0129395C32.8932 0.0129395 32.8791 0.0129395 32.8651 0.0129395C32.2328 0.0403067 31.7691 0.532918 31.755 1.20342C31.7269 2.90019 32.3733 4.59696 33.5817 5.96532C34.79 7.34737 36.4059 8.20944 38.106 8.41469C38.935 8.51048 39.8062 8.51048 40.6352 8.51048C41.141 8.51048 41.6469 8.51048 42.1668 8.53785C42.6866 8.55153 43.2908 8.60626 43.8669 8.75678C46.0308 9.35886 47.6747 11.5619 47.4639 13.5871L47.4218 13.9566H47.0705H46.4523C44.443 13.9566 42.4197 13.9566 40.4104 13.9566C38.4011 13.9566 36.3778 13.9566 34.3685 13.9566C30.9682 13.9566 28.2002 13.9566 25.6288 13.9429H25.5867C22.5517 13.9429 19.587 14.6681 16.8049 16.1049C12.4913 18.3216 8.96447 21.6878 6.33696 26.0803C4.29958 29.4738 3.25981 32.8126 3.1474 36.3019C3.13335 36.644 2.89449 36.9588 2.69777 37.1366C1.46129 38.1766 0.660392 39.4081 0.252916 40.886C0.196713 41.1186 0.126458 41.3512 0.0702545 41.5838C0.0421527 41.6796 0.0281018 41.7754 0 41.8575V43.048C0.30912 43.6227 0.78685 43.8553 1.68611 43.8553ZM5.4658 34.9473C5.56416 34.5641 5.66251 34.1673 5.74682 33.7842C5.94353 32.9358 6.14024 32.06 6.46341 31.2253C8.82397 24.9445 12.9971 20.3605 18.8704 17.6238C20.9077 16.6796 23.0856 16.187 25.3478 16.187C28.3266 16.187 31.5162 16.187 35.6893 16.187H40.9584H46.2275H46.9441H47.3094H47.6747L47.7309 16.5428L50.4427 35.002L50.513 35.4672H50.0212H5.87328H5.33934L5.4658 34.9473ZM2.66967 41.0365C3.1474 39.2439 5.14263 37.7661 7.22216 37.684C7.34862 37.684 7.47508 37.684 7.58749 37.684H7.69989H7.8123H35.5628H41.7312H42.2511H42.8974L42.6304 38.2587L42.5321 38.4913L41.2394 41.3102L41.127 41.5565H40.86H3.07715H2.52916L2.66967 41.0365Z" fill="#087868"/>
<path d="M51.1447 47.7285H42.3629H33.5811C23.4925 47.7285 12.6452 47.7285 1.62931 47.7148C0.786253 47.7148 0.294471 47.9611 -0.0146484 48.5359V49.1653C0.294471 49.7537 0.772202 49.9863 1.67146 49.9863C12.6593 49.9726 23.4504 49.9726 33.4827 49.9726H42.2926H51.1025H51.4116C52.1282 49.9726 52.9854 49.7811 52.9854 48.8506C52.9854 48.4948 52.8589 48.2211 52.62 48.0433C52.3531 47.838 51.9315 47.7285 51.4116 47.7285H51.1447Z" fill="#087868"/>
<path d="M39.3289 20.0875C37.0105 20.0739 35.0715 20.0602 33.2449 20.0602C30.7297 20.0602 28.4676 20.0739 26.3037 20.1012C25.6574 20.1149 24.8986 20.3202 24.2101 20.6896C22.5521 21.5654 21.7231 23.4674 22.2149 25.301C22.7067 27.1346 24.3787 28.4346 26.2897 28.4619C27.0344 28.4756 27.8353 28.4756 28.8188 28.4756C29.4792 28.4756 30.1256 28.4756 30.7859 28.4756C31.4463 28.4756 32.0927 28.4756 32.7531 28.4756C33.4275 28.4756 34.102 28.4756 34.7764 28.4756C35.4508 28.4756 36.1253 28.4756 36.7857 28.4756C37.7552 28.4756 38.5701 28.4756 39.3148 28.4619C41.6332 28.4346 43.5161 26.5599 43.5301 24.3021C43.5442 21.9896 41.6613 20.1012 39.3289 20.0875ZM39.0619 26.2178C38.1908 26.2178 37.3337 26.2178 36.4625 26.2178C35.8583 26.2178 35.2401 26.2178 34.6359 26.2178C34.0317 26.2178 33.4135 26.2178 32.8093 26.2178H31.0248H29.1701C28.313 26.2178 27.4699 26.2178 26.6128 26.2178C25.3201 26.2178 24.4068 25.4242 24.3928 24.2884C24.3928 23.7548 24.5755 23.2895 24.9408 22.9337C25.3342 22.5369 25.9243 22.318 26.5847 22.318C28.6643 22.318 30.7438 22.318 32.8233 22.318C34.8888 22.318 36.9683 22.318 39.0338 22.318C39.6942 22.318 40.2703 22.5369 40.6778 22.9337C41.0291 23.2895 41.2258 23.7684 41.2258 24.2884C41.2117 25.4105 40.2984 26.2178 39.0619 26.2178Z" fill="#087868"/>
<path d="M15.3858 29.2966C15.2172 29.2966 15.0486 29.2966 14.88 29.2966C14.7114 29.2966 14.5428 29.2966 14.3882 29.2966C14.1493 29.2966 13.9667 29.2966 13.784 29.3103C13.1377 29.324 12.6318 29.8303 12.6318 30.4324C12.6318 31.0481 13.1377 31.5407 13.784 31.5544C14.2898 31.5681 14.8097 31.5681 15.3296 31.5681C15.8495 31.5681 16.3694 31.5681 16.9174 31.5544C17.5778 31.5407 18.0836 31.0618 18.0836 30.4461C18.0976 29.8166 17.5778 29.324 16.8893 29.3103C16.7207 29.3103 16.538 29.3103 16.3272 29.3103C16.1727 29.3103 16.0041 29.3103 15.8495 29.3103C15.6949 29.2966 15.5404 29.2966 15.3858 29.2966Z" fill="#087868"/>
</g>
<defs>
<clipPath id="clip0_527_1459">
<rect width="53" height="50" fill="white"/>
</clipPath>
</defs>
</svg>
