<svg width="27" height="15" viewBox="0 0 27 15" fill="none" xmlns="http://www.w3.org/2000/svg">
<path fill-rule="evenodd" clip-rule="evenodd" d="M26.3805 1.01566C26.5683 0.430264 26.3805 0 25.4872 0H22.5334C21.7823 0 21.4363 0.371645 21.2485 0.781579C21.2485 0.781579 19.7463 4.20651 17.6182 6.43125C16.9298 7.07526 16.6169 7.27993 16.2413 7.27993C16.0536 7.27993 15.7818 7.07526 15.7818 6.48987V1.01566C15.7818 0.313027 15.5639 0 14.9379 0H10.2962C9.82692 0 9.54462 0.326053 9.54462 0.635132C9.54462 1.30125 10.6084 1.4548 10.7181 3.32822V7.39737C10.7181 8.28947 10.546 8.45132 10.1704 8.45132C9.16906 8.45132 6.73343 5.01079 5.28859 1.07428C5.00545 0.309079 4.72146 0 3.96655 0H1.01274C0.168789 0 0 0.371645 0 0.781579C0 1.51342 1.00155 5.14342 4.66281 9.94421C7.10392 13.2225 10.5426 15 13.6719 15C15.5497 15 15.7818 14.6053 15.7818 13.9253V11.4474C15.7818 10.6579 15.9597 10.5004 16.554 10.5004C16.9925 10.5004 17.7434 10.7053 19.496 12.286C21.4987 14.1592 21.8287 15 22.9554 15H25.9092C26.7531 15 27.1751 14.6053 26.9316 13.8262C26.6653 13.0498 25.7092 11.9236 24.4403 10.5882C23.7518 9.82697 22.7191 9.0073 22.4064 8.59757C21.9682 8.07059 22.0933 7.83651 22.4064 7.36836C22.4064 7.36836 26.005 2.62599 26.3805 1.01586V1.01566Z" fill="white"/>
</svg>
