<svg width="17" height="10" viewBox="0 0 17 10" fill="none" xmlns="http://www.w3.org/2000/svg">
<path fill-rule="evenodd" clip-rule="evenodd" d="M16.0314 1.40969C16.1441 1.05845 16.0314 0.800293 15.4954 0.800293H13.7232C13.2725 0.800293 13.0649 1.02328 12.9522 1.26924C12.9522 1.26924 12.0509 3.3242 10.7741 4.65904C10.361 5.04545 10.1733 5.16825 9.94793 5.16825C9.83526 5.16825 9.67221 5.04545 9.67221 4.69421V1.40969C9.67221 0.988109 9.54144 0.800293 9.16584 0.800293H6.38082C6.09928 0.800293 5.9299 0.995925 5.9299 1.18137C5.9299 1.58104 6.56817 1.67317 6.634 2.79723V5.23871C6.634 5.77398 6.5307 5.87108 6.30537 5.87108C5.70456 5.87108 4.24318 3.80677 3.37628 1.44486C3.20639 0.98574 3.036 0.800293 2.58306 0.800293H0.810767C0.304399 0.800293 0.203125 1.02328 0.203125 1.26924C0.203125 1.70835 0.804057 3.88635 3.00081 6.76682C4.46548 8.73379 6.52868 9.80029 8.40629 9.80029C9.53296 9.80029 9.67221 9.56345 9.67221 9.15549V7.66871C9.67221 7.19503 9.77893 7.10053 10.1355 7.10053C10.3986 7.10053 10.8491 7.22345 11.9007 8.17189C13.1023 9.29582 13.3003 9.80029 13.9763 9.80029H15.7486C16.255 9.80029 16.5082 9.56345 16.3621 9.09604C16.2023 8.63017 15.6286 7.95446 14.8673 7.15323C14.4542 6.69648 13.8346 6.20467 13.6469 5.95883C13.384 5.64265 13.4591 5.5022 13.6469 5.22131C13.6469 5.22131 15.8061 2.37589 16.0314 1.40981V1.40969Z" fill="white"/>
</svg>
